<svg width="465" height="209" viewBox="0 0 465 209" fill="none" xmlns="http://www.w3.org/2000/svg">
<path fill-rule="evenodd" clip-rule="evenodd" d="M194.973 122.715C195.026 121.752 195.122 120.818 195.243 119.945C195.621 117.319 197.663 117.521 197.821 117.54C198.153 117.581 199.626 117.833 199.787 119.924C199.798 120.048 199.767 120.941 199.75 121.285C199.711 122.018 199.659 122.737 199.507 123.449C199.468 124.678 199.515 125.95 199.721 127.162C200.018 128.951 200.615 130.633 201.888 131.619C204.164 133.391 207.355 133.63 209.982 134.274C211.079 134.542 211.821 135.736 211.732 137.083C211.635 138.431 210.737 139.529 209.609 139.669C206.21 140.094 202.038 143.365 199.325 146.06C198.491 146.888 197.448 148.95 196.381 150.232C195.52 151.26 194.611 151.917 193.788 152.134C193.467 152.218 191.711 152.47 191.14 150.263C190.985 149.644 190.533 146.435 190.498 146.071C190.284 143.982 189.874 142.095 188.886 140.356C188.028 138.849 186.941 137.5 185.561 136.679C185.004 136.348 184.419 136.081 183.834 135.808C183.625 135.757 183.036 135.61 182.832 135.503C182.417 135.29 182.125 134.989 181.923 134.698C181.54 134.147 181.378 133.517 181.406 132.82C181.419 132.359 181.523 131.821 181.853 131.245C182.097 130.837 182.62 130.237 183.492 129.897C184.403 129.543 186.311 129.305 186.654 129.228C189.041 128.699 191.418 127.776 193.383 125.971C194.361 125.069 194.666 124.025 194.973 122.715ZM195.727 130.577C196.409 132.883 197.564 134.878 199.307 136.231C200.025 136.793 200.822 137.243 201.658 137.613C199.739 138.931 197.93 140.464 196.473 141.905C196.001 142.375 195.461 143.156 194.884 144.014C194.537 141.543 193.895 139.292 192.691 137.173C191.977 135.924 191.147 134.766 190.195 133.775C192.155 133.061 194.047 132.036 195.727 130.577Z" fill="#EDB842"/>
<path fill-rule="evenodd" clip-rule="evenodd" d="M140.381 195.4C157.556 197.528 175.252 198.183 191.05 206.804C192.182 207.424 193.554 206.802 194.111 205.435C194.668 204.058 194.195 202.438 193.063 201.818C176.823 192.954 158.66 192.144 141.01 189.963C139.757 189.808 138.608 190.9 138.436 192.395C138.263 193.899 139.137 195.237 140.381 195.4Z" fill="#EDB842"/>
<path fill-rule="evenodd" clip-rule="evenodd" d="M141.956 165.089C147.847 159.705 154.083 155.839 161.326 154.318C162.573 154.055 163.44 152.636 163.267 151.152C163.087 149.666 161.936 148.674 160.682 148.936C152.675 150.617 145.772 154.838 139.262 160.788C138.243 161.719 138.02 163.437 138.762 164.624C139.505 165.811 140.936 166.02 141.956 165.089Z" fill="#EDB842"/>
<path fill-rule="evenodd" clip-rule="evenodd" d="M133.242 98.6241C136.635 88.8169 142.182 81.4176 150.081 76.4429C151.209 75.7305 151.679 74.0727 151.118 72.7435C150.564 71.4141 149.191 70.9133 148.063 71.6266C139.133 77.2478 132.862 85.603 129.028 96.6858C128.544 98.0957 129.089 99.6745 130.253 100.209C131.416 100.745 132.758 100.034 133.242 98.6241Z" fill="#EDB842"/>
<path fill-rule="evenodd" clip-rule="evenodd" d="M48.739 76.5531C47.1248 78.4472 45.6476 80.5063 44.3391 82.7187C43.5773 83.9944 42.1634 86.9994 42.1397 89.27C42.1239 90.9716 42.66 92.4075 43.9152 93.3433C45.9189 94.8409 47.6365 94.8429 49.0197 94.183C50.3466 93.5517 51.4836 92.1842 52.2907 90.2679C53.7287 86.8465 54.1038 81.5043 53.8473 78.2406C55.5357 76.5322 57.3519 75.0053 59.2569 73.6701C73.9069 63.4171 93.3928 69.6066 107.071 88.3002C111.864 94.8492 113.214 107.792 113.259 121.609C113.34 143.291 109.87 167.169 109.039 174.183C108.826 176.029 108.889 177.141 108.944 177.367C109.254 178.616 109.98 179.005 110.491 179.173C111.21 179.405 111.809 179.288 112.314 179.033C112.987 178.694 113.583 178.043 113.928 176.975C114.102 176.428 114.213 175.657 114.276 174.829C114.307 174.338 114.259 173.795 114.376 173.452C115.199 171.044 116.138 168.704 117.055 166.347C120.141 158.416 123.866 151.064 127.909 143.75C140.787 120.497 153.425 95.8281 172.523 78.9898C173.555 78.0805 173.809 76.3666 173.083 75.1629C172.357 73.9601 170.929 73.7216 169.896 74.6309C150.341 91.8694 137.305 117.036 124.13 140.844C121.065 146.375 118.188 151.933 115.617 157.73C117.076 144.231 118.535 125.89 117.459 110.536C116.7 99.5882 114.593 90.1325 110.556 84.6225C95.296 63.7676 73.3937 57.5383 57.0513 68.9772C55.4411 70.1021 53.8954 71.3504 52.4152 72.7148C45.9708 55.1152 29.7811 46.8442 14.1267 53.5888C12.9326 54.1063 12.2728 55.6755 12.6657 57.0923C13.0586 58.5092 14.3484 59.2403 15.5425 58.7228C29.3424 52.7786 43.6047 60.5202 48.739 76.5531ZM49.2206 83.8983C48.8117 84.5092 48.4166 85.1351 48.0354 85.7761C47.7639 86.225 47.346 87.0119 47.0287 87.865C46.9243 88.162 46.8185 88.6349 46.7606 88.9244C47.0255 89.1107 47.2446 89.2157 47.4603 89.1142C47.8122 88.945 48.0032 88.4582 48.2197 87.9446C48.702 86.8001 49.03 85.3498 49.2206 83.8983Z" fill="#EDB842"/>
<path fill-rule="evenodd" clip-rule="evenodd" d="M256 0C244.954 0 236 8.95435 236 20V35.906L200.5 56.4019C198.5 57.5566 198.5 60.4434 200.5 61.5981L236 82.094V105C236 116.046 244.954 125 256 125H445C456.046 125 465 116.046 465 105V20C465 8.95435 456.046 0 445 0H256Z" fill="#FDFCF3"/>
<path d="M279.207 29.3438C279.128 28.5994 278.793 28.0199 278.202 27.6051C277.616 27.1903 276.855 26.983 275.918 26.983C275.259 26.983 274.693 27.0824 274.222 27.2812C273.75 27.4801 273.389 27.75 273.139 28.0909C272.889 28.4318 272.761 28.821 272.756 29.2585C272.756 29.6222 272.838 29.9375 273.003 30.2045C273.173 30.4716 273.403 30.6989 273.693 30.8864C273.983 31.0682 274.304 31.2216 274.656 31.3466C275.009 31.4716 275.364 31.5767 275.722 31.6619L277.358 32.071C278.017 32.2244 278.651 32.4318 279.259 32.6932C279.872 32.9545 280.42 33.2841 280.903 33.6818C281.392 34.0795 281.778 34.5597 282.062 35.1222C282.347 35.6847 282.489 36.3437 282.489 37.0994C282.489 38.1222 282.227 39.0227 281.705 39.8011C281.182 40.5739 280.426 41.179 279.438 41.6165C278.455 42.0483 277.264 42.2642 275.866 42.2642C274.509 42.2642 273.33 42.054 272.33 41.6335C271.335 41.2131 270.557 40.5994 269.994 39.7926C269.438 38.9858 269.136 38.0028 269.091 36.8438H272.202C272.247 37.4517 272.435 37.9574 272.764 38.3608C273.094 38.7642 273.523 39.0653 274.051 39.2642C274.585 39.4631 275.182 39.5625 275.841 39.5625C276.528 39.5625 277.131 39.4602 277.648 39.2557C278.17 39.0455 278.58 38.7557 278.875 38.3864C279.17 38.0114 279.321 37.5739 279.327 37.0739C279.321 36.6193 279.188 36.2443 278.926 35.9489C278.665 35.6477 278.298 35.3977 277.827 35.1989C277.361 34.9943 276.815 34.8125 276.19 34.6534L274.205 34.142C272.767 33.7727 271.631 33.2131 270.795 32.4631C269.966 31.7074 269.551 30.7045 269.551 29.4545C269.551 28.4261 269.83 27.5256 270.386 26.7528C270.949 25.9801 271.713 25.3807 272.679 24.9545C273.645 24.5227 274.739 24.3068 275.96 24.3068C277.199 24.3068 278.284 24.5227 279.216 24.9545C280.153 25.3807 280.889 25.9744 281.423 26.7358C281.957 27.4915 282.233 28.3608 282.25 29.3438H279.207ZM291.708 28.9091V31.2955H284.183V28.9091H291.708ZM286.04 25.7727H289.126V38.0625C289.126 38.4773 289.188 38.7955 289.313 39.017C289.444 39.233 289.614 39.3807 289.825 39.4602C290.035 39.5398 290.268 39.5795 290.523 39.5795C290.717 39.5795 290.893 39.5653 291.052 39.5369C291.217 39.5085 291.342 39.483 291.427 39.4602L291.947 41.8722C291.782 41.929 291.546 41.9915 291.239 42.0597C290.938 42.1278 290.569 42.1676 290.131 42.179C289.359 42.2017 288.663 42.0852 288.043 41.8295C287.424 41.5682 286.933 41.1648 286.569 40.6193C286.211 40.0739 286.035 39.392 286.04 38.5739V25.7727ZM298.055 42.2642C297.226 42.2642 296.479 42.1165 295.814 41.821C295.155 41.5199 294.632 41.0767 294.246 40.4915C293.865 39.9062 293.675 39.1847 293.675 38.3267C293.675 37.5881 293.811 36.9773 294.084 36.4943C294.357 36.0114 294.729 35.625 295.2 35.3352C295.672 35.0455 296.203 34.8267 296.794 34.679C297.391 34.5256 298.007 34.4148 298.643 34.3466C299.411 34.267 300.033 34.196 300.51 34.1335C300.987 34.0653 301.334 33.9631 301.55 33.8267C301.771 33.6847 301.882 33.4659 301.882 33.1705V33.1193C301.882 32.4773 301.692 31.9801 301.311 31.6278C300.93 31.2756 300.382 31.0994 299.666 31.0994C298.911 31.0994 298.311 31.2642 297.868 31.5938C297.43 31.9233 297.135 32.3125 296.982 32.7614L294.101 32.3523C294.328 31.5568 294.703 30.892 295.226 30.358C295.749 29.8182 296.388 29.4148 297.143 29.1477C297.899 28.875 298.734 28.7386 299.649 28.7386C300.28 28.7386 300.908 28.8125 301.533 28.9602C302.158 29.108 302.729 29.3523 303.246 29.6932C303.763 30.0284 304.178 30.4858 304.49 31.0653C304.808 31.6449 304.967 32.3693 304.967 33.2386V42H302.001V40.2017H301.899C301.712 40.5653 301.447 40.9062 301.107 41.2244C300.771 41.5369 300.348 41.7898 299.837 41.983C299.331 42.1705 298.737 42.2642 298.055 42.2642ZM298.857 39.9972C299.476 39.9972 300.013 39.875 300.467 39.6307C300.922 39.3807 301.271 39.0511 301.516 38.642C301.766 38.233 301.891 37.7869 301.891 37.304V35.7614C301.794 35.8409 301.629 35.9148 301.396 35.983C301.169 36.0511 300.913 36.1108 300.629 36.1619C300.345 36.2131 300.064 36.2585 299.786 36.2983C299.507 36.3381 299.266 36.3722 299.061 36.4006C298.601 36.4631 298.189 36.5653 297.825 36.7074C297.462 36.8494 297.175 37.0483 296.964 37.304C296.754 37.554 296.649 37.8778 296.649 38.2756C296.649 38.8438 296.857 39.2727 297.271 39.5625C297.686 39.8523 298.214 39.9972 298.857 39.9972ZM308.07 42V28.9091H311.061V31.0909H311.197C311.436 30.3352 311.845 29.7528 312.425 29.3438C313.01 28.929 313.678 28.7216 314.428 28.7216C314.598 28.7216 314.788 28.7301 314.999 28.7472C315.214 28.7585 315.393 28.7784 315.536 28.8068V31.6449C315.405 31.5994 315.197 31.5597 314.913 31.5256C314.635 31.4858 314.365 31.4659 314.104 31.4659C313.541 31.4659 313.036 31.5881 312.587 31.8324C312.143 32.071 311.794 32.4034 311.538 32.8295C311.283 33.2557 311.155 33.7472 311.155 34.304V42H308.07ZM324.825 28.9091V31.2955H317.3V28.9091H324.825ZM319.158 25.7727H322.243V38.0625C322.243 38.4773 322.305 38.7955 322.43 39.017C322.561 39.233 322.732 39.3807 322.942 39.4602C323.152 39.5398 323.385 39.5795 323.641 39.5795C323.834 39.5795 324.01 39.5653 324.169 39.5369C324.334 39.5085 324.459 39.483 324.544 39.4602L325.064 41.8722C324.899 41.929 324.663 41.9915 324.357 42.0597C324.055 42.1278 323.686 42.1676 323.249 42.179C322.476 42.2017 321.78 42.0852 321.161 41.8295C320.541 41.5682 320.05 41.1648 319.686 40.6193C319.328 40.0739 319.152 39.392 319.158 38.5739V25.7727ZM327.406 42V28.9091H330.491V42H327.406ZM328.957 27.0511C328.468 27.0511 328.048 26.8892 327.695 26.5653C327.343 26.2358 327.167 25.8409 327.167 25.3807C327.167 24.9148 327.343 24.5199 327.695 24.196C328.048 23.8665 328.468 23.7017 328.957 23.7017C329.451 23.7017 329.871 23.8665 330.218 24.196C330.57 24.5199 330.746 24.9148 330.746 25.3807C330.746 25.8409 330.57 26.2358 330.218 26.5653C329.871 26.8892 329.451 27.0511 328.957 27.0511ZM336.749 34.3295V42H333.663V28.9091H336.612V31.1335H336.766C337.067 30.4006 337.547 29.8182 338.206 29.3864C338.871 28.9545 339.692 28.7386 340.669 28.7386C341.572 28.7386 342.359 28.9318 343.03 29.3182C343.706 29.7045 344.229 30.2642 344.598 30.9972C344.973 31.7301 345.158 32.6193 345.152 33.6648V42H342.067V34.142C342.067 33.267 341.839 32.5824 341.385 32.0881C340.936 31.5937 340.314 31.3466 339.518 31.3466C338.979 31.3466 338.499 31.4659 338.078 31.7045C337.663 31.9375 337.337 32.2756 337.098 32.7188C336.865 33.1619 336.749 33.6989 336.749 34.3295ZM353.982 47.1818C352.874 47.1818 351.922 47.0313 351.126 46.7301C350.331 46.4347 349.692 46.0369 349.209 45.5369C348.726 45.0369 348.391 44.483 348.203 43.875L350.982 43.2017C351.107 43.4574 351.288 43.7102 351.527 43.9602C351.766 44.2159 352.087 44.4261 352.49 44.5909C352.899 44.7614 353.413 44.8466 354.033 44.8466C354.908 44.8466 355.632 44.6335 356.206 44.2074C356.78 43.7869 357.067 43.0938 357.067 42.1278V39.6477H356.913C356.754 39.9659 356.521 40.2926 356.214 40.6278C355.913 40.9631 355.513 41.2443 355.013 41.4716C354.518 41.6989 353.896 41.8125 353.146 41.8125C352.141 41.8125 351.229 41.5767 350.411 41.1051C349.598 40.6278 348.95 39.9176 348.467 38.9744C347.99 38.0256 347.751 36.8381 347.751 35.4119C347.751 33.9744 347.99 32.7614 348.467 31.7727C348.95 30.7784 349.601 30.0256 350.419 29.5142C351.237 28.9972 352.149 28.7386 353.155 28.7386C353.922 28.7386 354.553 28.8693 355.047 29.1307C355.547 29.3864 355.945 29.696 356.24 30.0597C356.536 30.4176 356.76 30.7557 356.913 31.0739H357.084V28.9091H360.126V42.2131C360.126 43.3324 359.859 44.2585 359.325 44.9915C358.791 45.7244 358.061 46.2727 357.135 46.6364C356.209 47 355.158 47.1818 353.982 47.1818ZM354.007 39.392C354.661 39.392 355.217 39.233 355.678 38.9148C356.138 38.5966 356.487 38.1392 356.726 37.5426C356.964 36.946 357.084 36.2301 357.084 35.3949C357.084 34.571 356.964 33.8494 356.726 33.2301C356.493 32.6108 356.146 32.1307 355.686 31.7898C355.232 31.4432 354.672 31.2699 354.007 31.2699C353.32 31.2699 352.746 31.4489 352.286 31.8068C351.825 32.1648 351.479 32.6562 351.246 33.2812C351.013 33.9006 350.896 34.6051 350.896 35.3949C350.896 36.196 351.013 36.8977 351.246 37.5C351.484 38.0966 351.834 38.5625 352.294 38.8977C352.76 39.2273 353.331 39.392 354.007 39.392ZM369.378 42V24.5455H380.56V27.196H372.54V31.9347H379.793V34.5852H372.54V42H369.378ZM383.116 42V28.9091H386.108V31.0909H386.244C386.483 30.3352 386.892 29.7528 387.472 29.3438C388.057 28.929 388.724 28.7216 389.474 28.7216C389.645 28.7216 389.835 28.7301 390.045 28.7472C390.261 28.7585 390.44 28.7784 390.582 28.8068V31.6449C390.452 31.5994 390.244 31.5597 389.96 31.5256C389.682 31.4858 389.412 31.4659 389.151 31.4659C388.588 31.4659 388.082 31.5881 387.634 31.8324C387.19 32.071 386.841 32.4034 386.585 32.8295C386.33 33.2557 386.202 33.7472 386.202 34.304V42H383.116ZM397.803 42.2557C396.525 42.2557 395.417 41.9744 394.479 41.4119C393.542 40.8494 392.815 40.0625 392.298 39.0511C391.786 38.0398 391.531 36.858 391.531 35.5057C391.531 34.1534 391.786 32.9687 392.298 31.9517C392.815 30.9347 393.542 30.1449 394.479 29.5824C395.417 29.0199 396.525 28.7386 397.803 28.7386C399.082 28.7386 400.19 29.0199 401.127 29.5824C402.065 30.1449 402.789 30.9347 403.3 31.9517C403.817 32.9687 404.076 34.1534 404.076 35.5057C404.076 36.858 403.817 38.0398 403.3 39.0511C402.789 40.0625 402.065 40.8494 401.127 41.4119C400.19 41.9744 399.082 42.2557 397.803 42.2557ZM397.82 39.7841C398.513 39.7841 399.093 39.5937 399.559 39.2131C400.025 38.8267 400.371 38.3097 400.599 37.6619C400.832 37.0142 400.948 36.2926 400.948 35.4972C400.948 34.696 400.832 33.9716 400.599 33.3239C400.371 32.6705 400.025 32.1506 399.559 31.7642C399.093 31.3778 398.513 31.1847 397.82 31.1847C397.11 31.1847 396.519 31.3778 396.048 31.7642C395.582 32.1506 395.232 32.6705 394.999 33.3239C394.772 33.9716 394.658 34.696 394.658 35.4972C394.658 36.2926 394.772 37.0142 394.999 37.6619C395.232 38.3097 395.582 38.8267 396.048 39.2131C396.519 39.5937 397.11 39.7841 397.82 39.7841ZM406.695 42V28.9091H409.643V31.1335H409.797C410.07 30.3835 410.521 29.7983 411.152 29.3778C411.783 28.9517 412.536 28.7386 413.411 28.7386C414.297 28.7386 415.044 28.9545 415.652 29.3864C416.266 29.8125 416.697 30.3949 416.947 31.1335H417.084C417.374 30.4062 417.862 29.8267 418.55 29.3949C419.243 28.9574 420.064 28.7386 421.013 28.7386C422.217 28.7386 423.2 29.1193 423.962 29.8807C424.723 30.642 425.104 31.7528 425.104 33.2131V42H422.01V33.6903C422.01 32.8778 421.794 32.2841 421.362 31.9091C420.93 31.5284 420.402 31.3381 419.777 31.3381C419.033 31.3381 418.45 31.571 418.03 32.0369C417.615 32.4972 417.408 33.0966 417.408 33.8352V42H414.382V33.5625C414.382 32.8864 414.178 32.3466 413.768 31.9432C413.365 31.5398 412.837 31.3381 412.183 31.3381C411.74 31.3381 411.337 31.4517 410.973 31.679C410.609 31.9006 410.32 32.2159 410.104 32.625C409.888 33.0284 409.78 33.5 409.78 34.0398V42H406.695ZM270.19 71L277.614 56.3068V56.1875H268.997V53.5455H280.886V56.2472L273.472 71H270.19ZM289.462 53.3068C290.298 53.3125 291.11 53.4602 291.9 53.75C292.695 54.0341 293.411 54.5 294.048 55.1477C294.684 55.7898 295.19 56.6506 295.565 57.7301C295.94 58.8097 296.127 60.1449 296.127 61.7358C296.133 63.2358 295.974 64.5767 295.65 65.7585C295.332 66.9347 294.874 67.929 294.278 68.7415C293.681 69.554 292.962 70.1733 292.121 70.5994C291.281 71.0256 290.335 71.2386 289.283 71.2386C288.181 71.2386 287.204 71.0227 286.352 70.5909C285.505 70.1591 284.82 69.5682 284.298 68.8182C283.775 68.0682 283.454 67.2102 283.335 66.2443H286.445C286.604 66.9375 286.928 67.4886 287.417 67.8977C287.911 68.3011 288.533 68.5028 289.283 68.5028C290.494 68.5028 291.425 67.9773 292.079 66.9261C292.732 65.875 293.059 64.4148 293.059 62.5455H292.94C292.661 63.0455 292.3 63.4773 291.857 63.8409C291.414 64.1989 290.911 64.4744 290.349 64.6676C289.792 64.8608 289.201 64.9574 288.576 64.9574C287.553 64.9574 286.633 64.7131 285.815 64.2244C285.002 63.7358 284.357 63.0653 283.88 62.2131C283.408 61.3608 283.17 60.3864 283.164 59.2898C283.164 58.1534 283.425 57.1335 283.948 56.2301C284.477 55.321 285.212 54.6051 286.156 54.0824C287.099 53.554 288.201 53.2955 289.462 53.3068ZM289.471 55.8636C288.857 55.8636 288.303 56.0142 287.809 56.3153C287.32 56.6108 286.934 57.0142 286.65 57.5256C286.371 58.0312 286.232 58.5966 286.232 59.2216C286.238 59.8409 286.377 60.4034 286.65 60.9091C286.928 61.4148 287.306 61.8153 287.783 62.1108C288.266 62.4062 288.817 62.554 289.437 62.554C289.897 62.554 290.326 62.4659 290.724 62.2898C291.121 62.1136 291.468 61.8693 291.763 61.5568C292.065 61.2386 292.298 60.8778 292.462 60.4744C292.633 60.071 292.715 59.6449 292.71 59.196C292.71 58.5994 292.567 58.0483 292.283 57.5426C292.005 57.0369 291.621 56.6307 291.133 56.3239C290.65 56.017 290.096 55.8636 289.471 55.8636ZM305.025 53.3068C305.86 53.3125 306.673 53.4602 307.462 53.75C308.258 54.0341 308.974 54.5 309.61 55.1477C310.246 55.7898 310.752 56.6506 311.127 57.7301C311.502 58.8097 311.69 60.1449 311.69 61.7358C311.695 63.2358 311.536 64.5767 311.212 65.7585C310.894 66.9347 310.437 67.929 309.84 68.7415C309.244 69.554 308.525 70.1733 307.684 70.5994C306.843 71.0256 305.897 71.2386 304.846 71.2386C303.744 71.2386 302.766 71.0227 301.914 70.5909C301.067 70.1591 300.383 69.5682 299.86 68.8182C299.337 68.0682 299.016 67.2102 298.897 66.2443H302.008C302.167 66.9375 302.491 67.4886 302.979 67.8977C303.474 68.3011 304.096 68.5028 304.846 68.5028C306.056 68.5028 306.988 67.9773 307.641 66.9261C308.295 65.875 308.621 64.4148 308.621 62.5455H308.502C308.224 63.0455 307.863 63.4773 307.42 63.8409C306.977 64.1989 306.474 64.4744 305.911 64.6676C305.354 64.8608 304.763 64.9574 304.138 64.9574C303.116 64.9574 302.195 64.7131 301.377 64.2244C300.565 63.7358 299.92 63.0653 299.442 62.2131C298.971 61.3608 298.732 60.3864 298.727 59.2898C298.727 58.1534 298.988 57.1335 299.511 56.2301C300.039 55.321 300.775 54.6051 301.718 54.0824C302.661 53.554 303.763 53.2955 305.025 53.3068ZM305.033 55.8636C304.42 55.8636 303.866 56.0142 303.371 56.3153C302.883 56.6108 302.496 57.0142 302.212 57.5256C301.934 58.0312 301.795 58.5966 301.795 59.2216C301.8 59.8409 301.94 60.4034 302.212 60.9091C302.491 61.4148 302.869 61.8153 303.346 62.1108C303.829 62.4062 304.38 62.554 304.999 62.554C305.46 62.554 305.888 62.4659 306.286 62.2898C306.684 62.1136 307.031 61.8693 307.326 61.5568C307.627 61.2386 307.86 60.8778 308.025 60.4744C308.195 60.071 308.278 59.6449 308.272 59.196C308.272 58.5994 308.13 58.0483 307.846 57.5426C307.567 57.0369 307.184 56.6307 306.695 56.3239C306.212 56.017 305.658 55.8636 305.033 55.8636ZM320.153 73.1818V51.3636H321.55V73.1818H320.153ZM324.184 58.3438C324.104 57.5994 323.769 57.0199 323.178 56.6051C322.593 56.1903 321.832 55.983 320.894 55.983C320.235 55.983 319.67 56.0824 319.198 56.2812C318.727 56.4801 318.366 56.75 318.116 57.0909C317.866 57.4318 317.738 57.821 317.732 58.2585C317.732 58.6222 317.815 58.9375 317.979 59.2045C318.15 59.4716 318.38 59.6989 318.67 59.8864C318.96 60.0682 319.281 60.2216 319.633 60.3466C319.985 60.4716 320.34 60.5767 320.698 60.6619L322.335 61.071C322.994 61.2244 323.627 61.4318 324.235 61.6932C324.849 61.9545 325.397 62.2841 325.88 62.6818C326.369 63.0795 326.755 63.5597 327.039 64.1222C327.323 64.6847 327.465 65.3437 327.465 66.0994C327.465 67.1222 327.204 68.0227 326.681 68.8011C326.158 69.5739 325.403 70.179 324.414 70.6165C323.431 71.0483 322.241 71.2642 320.843 71.2642C319.485 71.2642 318.306 71.054 317.306 70.6335C316.312 70.2131 315.533 69.5994 314.971 68.7926C314.414 67.9858 314.113 67.0028 314.067 65.8438H317.178C317.224 66.4517 317.411 66.9574 317.741 67.3608C318.07 67.7642 318.499 68.0653 319.028 68.2642C319.562 68.4631 320.158 68.5625 320.817 68.5625C321.505 68.5625 322.107 68.4602 322.624 68.2557C323.147 68.0455 323.556 67.7557 323.852 67.3864C324.147 67.0114 324.298 66.5739 324.303 66.0739C324.298 65.6193 324.164 65.2443 323.903 64.9489C323.641 64.6477 323.275 64.3977 322.803 64.1989C322.337 63.9943 321.792 63.8125 321.167 63.6534L319.181 63.142C317.744 62.7727 316.607 62.2131 315.772 61.4631C314.942 60.7074 314.528 59.7045 314.528 58.4545C314.528 57.4261 314.806 56.5256 315.363 55.7528C315.925 54.9801 316.69 54.3807 317.656 53.9545C318.621 53.5227 319.715 53.3068 320.937 53.3068C322.175 53.3068 323.261 53.5227 324.192 53.9545C325.13 54.3807 325.866 54.9744 326.4 55.7358C326.934 56.4915 327.21 57.3608 327.227 58.3438H324.184ZM269.722 100V82.5455H276.267C277.608 82.5455 278.733 82.7955 279.642 83.2955C280.557 83.7955 281.247 84.483 281.713 85.358C282.185 86.2273 282.42 87.2159 282.42 88.3239C282.42 89.4432 282.185 90.4375 281.713 91.3068C281.241 92.1761 280.545 92.8608 279.625 93.3608C278.705 93.8551 277.571 94.1023 276.224 94.1023H271.886V91.5028H275.798C276.582 91.5028 277.224 91.3665 277.724 91.0938C278.224 90.821 278.594 90.446 278.832 89.9688C279.077 89.4915 279.199 88.9432 279.199 88.3239C279.199 87.7045 279.077 87.1591 278.832 86.6875C278.594 86.2159 278.222 85.8494 277.716 85.5881C277.216 85.321 276.571 85.1875 275.781 85.1875H272.884V100H269.722ZM290.638 100.256C289.326 100.256 288.192 99.983 287.238 99.4375C286.289 98.8864 285.559 98.108 285.048 97.1023C284.536 96.0909 284.281 94.9006 284.281 93.5312C284.281 92.1847 284.536 91.0028 285.048 89.9858C285.565 88.9631 286.286 88.1676 287.212 87.5994C288.138 87.0256 289.227 86.7386 290.477 86.7386C291.283 86.7386 292.045 86.8693 292.761 87.1307C293.482 87.3864 294.119 87.7841 294.67 88.3239C295.227 88.8636 295.664 89.5511 295.982 90.3864C296.3 91.2159 296.46 92.2045 296.46 93.3523V94.2983H285.729V92.2188H293.502C293.496 91.6278 293.369 91.1023 293.119 90.642C292.869 90.1761 292.519 89.8097 292.07 89.5426C291.627 89.2756 291.11 89.142 290.519 89.142C289.888 89.142 289.335 89.2955 288.857 89.6023C288.38 89.9034 288.008 90.3011 287.741 90.7955C287.479 91.2841 287.346 91.821 287.34 92.4062V94.2216C287.34 94.983 287.479 95.6364 287.758 96.1818C288.036 96.7216 288.425 97.1364 288.925 97.4261C289.425 97.7102 290.011 97.8523 290.681 97.8523C291.13 97.8523 291.536 97.7898 291.9 97.6648C292.263 97.5341 292.579 97.3438 292.846 97.0938C293.113 96.8438 293.315 96.5341 293.451 96.1648L296.332 96.4886C296.15 97.25 295.803 97.9148 295.292 98.483C294.786 99.0455 294.138 99.483 293.349 99.7955C292.559 100.102 291.656 100.256 290.638 100.256ZM299.07 100V86.9091H302.061V89.0909H302.197C302.436 88.3352 302.845 87.7528 303.425 87.3438C304.01 86.929 304.678 86.7216 305.428 86.7216C305.598 86.7216 305.788 86.7301 305.999 86.7472C306.214 86.7585 306.393 86.7784 306.536 86.8068V89.6449C306.405 89.5994 306.197 89.5597 305.913 89.5256C305.635 89.4858 305.365 89.4659 305.104 89.4659C304.541 89.4659 304.036 89.5881 303.587 89.8324C303.143 90.071 302.794 90.4034 302.538 90.8295C302.283 91.2557 302.155 91.7472 302.155 92.304V100H299.07ZM314.675 82.5455H318.544L323.726 95.1932H323.93L329.112 82.5455H332.982V100H329.947V88.0085H329.786L324.962 99.9489H322.695L317.871 87.983H317.709V100H314.675V82.5455ZM341.999 100.256C340.72 100.256 339.612 99.9744 338.675 99.4119C337.737 98.8494 337.01 98.0625 336.493 97.0511C335.982 96.0398 335.726 94.858 335.726 93.5057C335.726 92.1534 335.982 90.9687 336.493 89.9517C337.01 88.9347 337.737 88.1449 338.675 87.5824C339.612 87.0199 340.72 86.7386 341.999 86.7386C343.277 86.7386 344.385 87.0199 345.322 87.5824C346.26 88.1449 346.984 88.9347 347.496 89.9517C348.013 90.9687 348.271 92.1534 348.271 93.5057C348.271 94.858 348.013 96.0398 347.496 97.0511C346.984 98.0625 346.26 98.8494 345.322 99.4119C344.385 99.9744 343.277 100.256 341.999 100.256ZM342.016 97.7841C342.709 97.7841 343.288 97.5937 343.754 97.2131C344.22 96.8267 344.567 96.3097 344.794 95.6619C345.027 95.0142 345.143 94.2926 345.143 93.4972C345.143 92.696 345.027 91.9716 344.794 91.3239C344.567 90.6705 344.22 90.1506 343.754 89.7642C343.288 89.3778 342.709 89.1847 342.016 89.1847C341.305 89.1847 340.714 89.3778 340.243 89.7642C339.777 90.1506 339.428 90.6705 339.195 91.3239C338.967 91.9716 338.854 92.696 338.854 93.4972C338.854 94.2926 338.967 95.0142 339.195 95.6619C339.428 96.3097 339.777 96.8267 340.243 97.2131C340.714 97.5937 341.305 97.7841 342.016 97.7841ZM353.975 92.3295V100H350.89V86.9091H353.839V89.1335H353.992C354.293 88.4006 354.773 87.8182 355.433 87.3864C356.097 86.9545 356.918 86.7386 357.896 86.7386C358.799 86.7386 359.586 86.9318 360.256 87.3182C360.933 87.7045 361.455 88.2642 361.825 88.9972C362.2 89.7301 362.384 90.6193 362.379 91.6648V100H359.293V92.142C359.293 91.267 359.066 90.5824 358.612 90.0881C358.163 89.5937 357.54 89.3466 356.745 89.3466C356.205 89.3466 355.725 89.4659 355.305 89.7045C354.89 89.9375 354.563 90.2756 354.325 90.7188C354.092 91.1619 353.975 91.6989 353.975 92.3295ZM372.052 86.9091V89.2955H364.526V86.9091H372.052ZM366.384 83.7727H369.469V96.0625C369.469 96.4773 369.532 96.7955 369.657 97.017C369.788 97.233 369.958 97.3807 370.168 97.4602C370.379 97.5398 370.612 97.5795 370.867 97.5795C371.06 97.5795 371.237 97.5653 371.396 97.5369C371.56 97.5085 371.685 97.483 371.771 97.4602L372.29 99.8722C372.126 99.929 371.89 99.9915 371.583 100.06C371.282 100.128 370.913 100.168 370.475 100.179C369.702 100.202 369.006 100.085 368.387 99.8295C367.768 99.5682 367.276 99.1648 366.913 98.6193C366.555 98.0739 366.379 97.392 366.384 96.5739V83.7727ZM377.999 92.3295V100H374.913V82.5455H377.93V89.1335H378.084C378.391 88.3949 378.865 87.8125 379.507 87.3864C380.155 86.9545 380.979 86.7386 381.979 86.7386C382.888 86.7386 383.68 86.929 384.357 87.3097C385.033 87.6903 385.555 88.2472 385.925 88.9801C386.3 89.7131 386.487 90.608 386.487 91.6648V100H383.402V92.142C383.402 91.2614 383.175 90.5767 382.72 90.0881C382.271 89.5937 381.641 89.3466 380.828 89.3466C380.283 89.3466 379.794 89.4659 379.362 89.7045C378.936 89.9375 378.601 90.2756 378.357 90.7188C378.118 91.1619 377.999 91.6989 377.999 92.3295Z" fill="black"/>
</svg>
