<svg width="30" height="29" viewBox="0 0 30 29" fill="none" xmlns="http://www.w3.org/2000/svg">
<path d="M24.3982 28.5893H5.60174C3.00432 28.5893 0.882324 26.4673 0.882324 23.8699V5.07342C0.882324 2.476 3.00432 0.354004 5.60174 0.354004H24.3982C26.9956 0.354004 29.1176 2.476 29.1176 5.07342V23.8699C29.1176 26.4789 27.0072 28.5893 24.3982 28.5893Z" fill="#FDFCF3"/>
<path d="M15.0058 21.7245C13.0693 21.7245 11.2488 20.9708 9.88054 19.6025C8.51226 18.2342 7.75854 16.4137 7.75854 14.4772C7.75854 12.5408 8.51226 10.7203 9.88054 9.35198C11.2488 7.98369 13.0693 7.22998 15.0058 7.22998C16.9423 7.22998 18.7628 7.98369 20.1311 9.35198C21.4993 10.7203 22.253 12.5408 22.253 14.4772C22.253 16.4137 21.4993 18.2342 20.1311 19.6025C18.7512 20.9708 16.9423 21.7245 15.0058 21.7245ZM15.0058 8.7722C11.8634 8.7722 9.30076 11.3232 9.30076 14.4772C9.30076 17.6196 11.8518 20.1823 15.0058 20.1823C18.1482 20.1823 20.7108 17.6312 20.7108 14.4772C20.6992 11.3348 18.1482 8.7722 15.0058 8.7722Z" fill="#00B7EB"/>
<path d="M23.6657 6.992C24.4342 6.992 25.0572 6.369 25.0572 5.60049C25.0572 4.83198 24.4342 4.20898 23.6657 4.20898C22.8972 4.20898 22.2742 4.83198 22.2742 5.60049C22.2742 6.369 22.8972 6.992 23.6657 6.992Z" fill="#00B7EB"/>
</svg>
