<svg width="24" height="25" viewBox="0 0 24 25" fill="none" xmlns="http://www.w3.org/2000/svg">
<path d="M12 17.5C14.7614 17.5 17 15.2614 17 12.5C17 9.73858 14.7614 7.5 12 7.5C9.23858 7.5 7 9.73858 7 12.5C7 15.2614 9.23858 17.5 12 17.5Z" fill="white"/>
<path d="M12 2.5C10.0222 2.5 8.08879 3.08649 6.4443 4.1853C4.79981 5.28412 3.51809 6.8459 2.76121 8.67317C2.00433 10.5004 1.8063 12.5111 2.19215 14.4509C2.578 16.3907 3.53041 18.1725 4.92894 19.5711C6.32746 20.9696 8.10929 21.922 10.0491 22.3079C11.9889 22.6937 13.9996 22.4957 15.8268 21.7388C17.6541 20.9819 19.2159 19.7002 20.3147 18.0557C21.4135 16.4112 22 14.4778 22 12.5C22 11.1868 21.7413 9.88642 21.2388 8.67317C20.7363 7.45991 19.9997 6.35752 19.0711 5.42893C18.1425 4.50035 17.0401 3.76375 15.8268 3.2612C14.6136 2.75866 13.3132 2.5 12 2.5ZM12 19.5C10.6155 19.5 9.26216 19.0895 8.11101 18.3203C6.95987 17.5511 6.06266 16.4579 5.53285 15.1788C5.00303 13.8997 4.86441 12.4922 5.13451 11.1344C5.4046 9.7765 6.07129 8.52922 7.05026 7.55025C8.02922 6.57129 9.27651 5.9046 10.6344 5.6345C11.9922 5.36441 13.3997 5.50303 14.6788 6.03284C15.9579 6.56266 17.0511 7.45987 17.8203 8.61101C18.5895 9.76215 19 11.1155 19 12.5C19 14.3565 18.2625 16.137 16.9498 17.4497C15.637 18.7625 13.8565 19.5 12 19.5Z" fill="white"/>
</svg>
