<svg width="36" height="36" viewBox="0 0 36 36" fill="none" xmlns="http://www.w3.org/2000/svg">
<path fill-rule="evenodd" clip-rule="evenodd" d="M6.01667 15.7438H5.95953C5.45071 15.7438 4.96269 15.5417 4.60291 15.1818C4.24314 14.822 4.04102 14.3341 4.04102 13.8253V13.8251C4.04102 13.3163 4.24314 12.8284 4.60291 12.4686C4.96269 12.1087 5.45071 11.9066 5.95953 11.9066H6.01667C6.94275 5.80267 12.2182 1.11865 18.5791 1.11865C25.5919 1.11865 31.2856 6.81226 31.2856 13.8252C31.2856 14.9964 31.1268 16.1307 30.8296 17.208C31.2974 17.4549 31.6551 17.8706 31.8289 18.372C32.0104 18.8958 31.9764 19.4703 31.7344 19.9689L31.1851 21.1007C30.9431 21.5995 30.5129 21.9816 29.9891 22.1631C29.4654 22.3446 28.8909 22.3106 28.3922 22.0686L28.2886 22.0183C26.5863 24.033 24.2689 25.5117 21.6273 26.1631V26.6677H24.7148C24.9012 26.6677 25.0702 26.7768 25.1471 26.9465C25.2239 27.1163 25.1943 27.3153 25.0713 27.4553L18.9355 34.4408C18.8454 34.5433 18.7155 34.6021 18.5791 34.6021C18.4425 34.6021 18.3126 34.5433 18.2225 34.4408L12.0867 27.4553C11.9638 27.3153 11.9342 27.1163 12.011 26.9465C12.0878 26.7768 12.2569 26.6677 12.4433 26.6677H15.5297V26.1628C10.5936 24.9452 6.78971 20.8392 6.01667 15.7438ZM5.9089 12.8569C5.67018 12.8694 5.44379 12.9697 5.27394 13.1395C5.09208 13.3214 4.98994 13.568 4.98994 13.8251V13.8266C4.99028 14.0832 5.09242 14.3294 5.27394 14.5109C5.44379 14.6807 5.67018 14.781 5.9089 14.7935C5.88477 14.4739 5.8725 14.151 5.8725 13.8252C5.8725 13.4995 5.88477 13.1765 5.9089 12.8569ZM30.5332 18.1394C30.1291 19.2577 29.5725 20.3032 28.8884 21.2507C29.1406 21.3495 29.4207 21.3558 29.6784 21.2665C29.9644 21.1674 30.1993 20.9587 30.3314 20.6865L30.8807 19.5547C31.0128 19.2824 31.0314 18.9688 30.9323 18.6828C30.8565 18.4641 30.7167 18.2752 30.5332 18.1394ZM27.7951 21.1234C29.3861 19.1178 30.3367 16.5816 30.3367 13.8252C30.3367 7.33599 25.0683 2.06758 18.5791 2.06758C12.0898 2.06758 6.82143 7.33599 6.82143 13.8252C6.82143 20.3144 12.0898 25.5828 18.5791 25.5828C22.3034 25.5828 25.6256 23.8475 27.7805 21.1419C27.7853 21.1356 27.7902 21.1295 27.7951 21.1234ZM20.6783 26.3588C19.9954 26.4726 19.2941 26.5318 18.5791 26.5318C17.8636 26.5318 17.1619 26.4725 16.4786 26.3586V27.1422C16.4786 27.4042 16.2662 27.6166 16.0042 27.6166H13.4915L18.5791 33.4087L23.6666 27.6166H21.1528C20.8908 27.6166 20.6783 27.4042 20.6783 27.1422V26.3588ZM18.5791 4.1384C23.9254 4.1384 28.2659 8.4789 28.2659 13.8252C28.2659 19.1715 23.9254 23.512 18.5791 23.512C13.2327 23.512 8.89218 19.1715 8.89218 13.8252C8.89218 8.4789 13.2327 4.1384 18.5791 4.1384ZM18.5791 5.08732C13.7564 5.08732 9.8411 9.00264 9.8411 13.8252C9.8411 18.6478 13.7564 22.5631 18.5791 22.5631C23.4016 22.5631 27.3169 18.6478 27.3169 13.8252C27.3169 9.00264 23.4016 5.08732 18.5791 5.08732ZM19.0256 14.9428C18.8875 14.9981 18.7368 15.0285 18.5791 15.0285C17.9149 15.0285 17.3758 14.4893 17.3758 13.8252C17.3758 13.3295 17.6761 12.9035 18.1046 12.7192V9.67414C18.1046 9.41224 18.3172 9.19968 18.5791 9.19968C18.8409 9.19968 19.0535 9.41224 19.0535 9.67414V12.7192C19.482 12.9035 19.7823 13.3295 19.7823 13.8252C19.7823 13.9829 19.7519 14.1337 19.6965 14.2717L22.3798 16.955C22.565 17.1402 22.565 17.4408 22.3798 17.626C22.1947 17.8112 21.894 17.8112 21.7088 17.626L19.0256 14.9428ZM18.5791 13.5708C18.4387 13.5708 18.3247 13.6848 18.3247 13.8252C18.3247 13.9656 18.4387 14.0796 18.5791 14.0796C18.7194 14.0796 18.8334 13.9656 18.8334 13.8252C18.8334 13.6848 18.7194 13.5708 18.5791 13.5708ZM11.6535 10.3746C11.4268 10.2437 11.3489 9.95333 11.4799 9.72653C11.6108 9.49974 11.9012 9.42193 12.128 9.55288L12.9445 10.0242C13.1713 10.1552 13.2491 10.4456 13.1181 10.6723C12.9873 10.8991 12.6968 10.9769 12.47 10.8461L11.6535 10.3746ZM14.3067 7.37422C14.1757 7.14743 14.2536 6.85699 14.4803 6.72604C14.7071 6.59516 14.9975 6.67297 15.1285 6.89976L15.5998 7.71624C15.7308 7.94297 15.653 8.2334 15.4262 8.36436C15.1994 8.49524 14.909 8.41743 14.7781 8.1907L14.3067 7.37422ZM19.0535 22.0872C19.0535 22.349 18.8409 22.5617 18.5791 22.5617C18.3172 22.5617 18.1046 22.349 18.1046 22.0872V20.0662C18.1046 19.8044 18.3172 19.5917 18.5791 19.5917C18.8409 19.5917 19.0535 19.8044 19.0535 20.0662V22.0872ZM12.128 18.0975C11.9012 18.2285 11.6108 18.1507 11.4799 17.9239C11.3489 17.6971 11.4268 17.4067 11.6535 17.2758L12.47 16.8043C12.6968 16.6735 12.9873 16.7513 13.1181 16.978C13.2491 17.2048 13.1713 17.4952 12.9445 17.6262L12.128 18.0975ZM10.3171 14.2997C10.0552 14.2997 9.84259 14.087 9.84259 13.8252C9.84259 13.5634 10.0552 13.3507 10.3171 13.3507H12.338C12.5998 13.3507 12.8125 13.5634 12.8125 13.8252C12.8125 14.087 12.5998 14.2997 12.338 14.2997H10.3171ZM15.1285 20.7506C14.9975 20.9774 14.7071 21.0552 14.4803 20.9243C14.2536 20.7934 14.1757 20.503 14.3067 20.2762L14.7781 19.4597C14.909 19.233 15.1994 19.1551 15.4262 19.286C15.653 19.417 15.7308 19.7074 15.5998 19.9342L15.1285 20.7506ZM25.03 9.55288C25.2568 9.42193 25.5472 9.49974 25.6782 9.72653C25.8091 9.95333 25.7313 10.2437 25.5045 10.3746L24.688 10.8461C24.4612 10.9769 24.1708 10.8991 24.0399 10.6723C23.909 10.4456 23.9868 10.1552 24.2136 10.0242L25.03 9.55288ZM18.1046 5.5632C18.1046 5.30137 18.3172 5.08874 18.5791 5.08874C18.8409 5.08874 19.0535 5.30137 19.0535 5.5632V7.58414C19.0535 7.84604 18.8409 8.0586 18.5791 8.0586C18.3172 8.0586 18.1046 7.84604 18.1046 7.58414V5.5632ZM22.0296 6.89976C22.1605 6.67297 22.4509 6.59516 22.6777 6.72604C22.9045 6.85699 22.9823 7.14743 22.8514 7.37422L22.38 8.1907C22.2491 8.41743 21.9586 8.49524 21.7319 8.36436C21.5051 8.2334 21.4272 7.94297 21.5582 7.71624L22.0296 6.89976ZM22.8514 20.2762C22.9823 20.503 22.9045 20.7934 22.6777 20.9243C22.4509 21.0552 22.1605 20.9774 22.0296 20.7506L21.5582 19.9342C21.4272 19.7074 21.5051 19.417 21.7319 19.286C21.9586 19.1551 22.2491 19.233 22.38 19.4597L22.8514 20.2762ZM26.8411 13.3507C27.1029 13.3507 27.3155 13.5634 27.3155 13.8252C27.3155 14.087 27.1029 14.2997 26.8411 14.2997H24.8201C24.5582 14.2997 24.3456 14.087 24.3456 13.8252C24.3456 13.5634 24.5582 13.3507 24.8201 13.3507H26.8411ZM25.5045 17.2758C25.7313 17.4067 25.8091 17.6971 25.6782 17.9239C25.5472 18.1507 25.2568 18.2285 25.03 18.0975L24.2136 17.6262C23.9868 17.4952 23.909 17.2048 24.0399 16.978C24.1708 16.7513 24.4612 16.6735 24.688 16.8043L25.5045 17.2758Z" fill="white"/>
</svg>
