<svg width="36" height="36" viewBox="0 0 36 36" fill="none" xmlns="http://www.w3.org/2000/svg">
<g clip-path="url(#clip0_2287_668)">
<path d="M17.991 0.576172C14.5725 0.576172 11.2309 1.58986 8.38854 3.48904C5.54621 5.38823 3.33088 8.08761 2.0227 11.2458C0.71452 14.4041 0.37224 17.8793 1.03915 21.2321C1.70605 24.5848 3.35219 27.6645 5.76939 30.0817C8.1866 32.4989 11.2663 34.1451 14.6191 34.812C17.9718 35.4789 21.447 35.1366 24.6053 33.8284C27.7635 32.5202 30.4629 30.3049 32.3621 27.4626C34.2613 24.6202 35.2749 21.2786 35.2749 17.8601C35.2698 13.2777 33.4471 8.8845 30.2069 5.64425C26.9666 2.404 22.5734 0.581356 17.991 0.576172ZM17.991 33.9918C14.8004 33.9918 11.6815 33.0457 9.02871 31.2731C6.37586 29.5006 4.30822 26.9811 3.08725 24.0335C1.86628 21.0858 1.54682 17.8422 2.16927 14.713C2.79171 11.5837 4.32811 8.70935 6.58416 6.4533C8.84022 4.19724 11.7146 2.66085 14.8439 2.0384C17.9731 1.41596 21.2166 1.73542 24.1643 2.95639C27.112 4.17736 29.6314 6.245 31.404 8.89784C33.1766 11.5507 34.1227 14.6696 34.1227 17.8601C34.1178 22.137 32.4167 26.2373 29.3924 29.2616C26.3682 32.2858 22.2679 33.9869 17.991 33.9918Z" fill="white"/>
<path d="M17.9912 2.88086C15.0285 2.88086 12.1324 3.75939 9.66903 5.40535C7.20567 7.05131 5.28572 9.39077 4.15197 12.1279C3.01821 14.865 2.72157 17.8769 3.29955 20.7826C3.87754 23.6884 5.30419 26.3574 7.3991 28.4523C9.49401 30.5472 12.1631 31.9739 15.0688 32.5519C17.9745 33.1299 20.9864 32.8332 23.7235 31.6995C26.4607 30.5657 28.8001 28.6458 30.4461 26.1824C32.092 23.7191 32.9706 20.8229 32.9706 17.8603C32.9662 13.8889 31.3865 10.0813 28.5783 7.27312C25.7701 4.46489 21.9626 2.88528 17.9912 2.88086ZM11.9049 12.5887C10.8754 13.7649 10.2132 15.2171 10.0002 16.7656C9.98635 16.9044 9.92267 17.0333 9.82096 17.1287C9.71926 17.224 9.58644 17.2793 9.44712 17.2842H4.17839C4.31237 14.0181 5.60338 10.9062 7.8207 8.50448L11.9049 12.5887ZM12.7161 11.7706L8.63535 7.68983C11.0371 5.47252 14.149 4.18151 17.415 4.04753V9.82094C15.6794 9.94691 14.0311 10.6308 12.7161 11.7706ZM18.5673 4.04753C21.8331 4.18139 24.9449 5.47243 27.3464 7.68983L24.782 10.2553C24.5597 10.2214 24.3326 10.266 24.1396 10.3815C23.6908 10.6477 23.1809 10.9536 22.6417 11.2809C21.4415 10.4326 20.033 9.92712 18.5673 9.81864V4.04753ZM24.1149 11.7366C21.7856 15.6232 20.0122 18.2837 19.2177 19.0788C19.0572 19.2407 18.8661 19.3692 18.6555 19.4567C18.445 19.5442 18.2192 19.5891 17.9912 19.5887C17.6492 19.5883 17.315 19.4864 17.0309 19.296C16.7468 19.1056 16.5256 18.8352 16.3953 18.519C16.265 18.2028 16.2313 17.8551 16.2987 17.5198C16.3661 17.1845 16.5314 16.8767 16.7738 16.6354C17.5677 15.8392 20.2283 14.0659 24.1149 11.7366ZM25.4711 11.7124C25.5869 11.5192 25.6314 11.2914 25.5967 11.0688L28.1616 8.50448C30.3789 10.9062 31.6699 14.0181 31.8039 17.2842H26.5352C26.3964 17.2792 26.2641 17.2243 26.1626 17.1296C26.0611 17.0348 25.9972 16.9066 25.9827 16.7685C25.8056 15.4853 25.322 14.2637 24.5729 13.2069C24.9001 12.6688 25.2049 12.16 25.4711 11.7124ZM17.9912 31.6874C14.4253 31.683 10.9986 30.3026 8.42541 27.834C5.85216 25.3654 4.33081 21.999 4.17839 18.4364H9.44712C9.86394 18.4293 10.2643 18.2727 10.5754 17.9951C10.8864 17.7175 11.0873 17.3374 11.1415 16.9241C11.2948 15.7892 11.7281 14.7103 12.4023 13.7846C13.0766 12.859 13.9706 12.1156 15.0038 11.6217C16.0369 11.1277 17.1768 10.8987 18.3206 10.9551C19.4644 11.0116 20.5762 11.3518 21.5557 11.9451C19.2932 13.3423 16.8314 14.9474 15.958 15.8196C15.5541 16.2221 15.2787 16.7353 15.1667 17.2944C15.0546 17.8535 15.1111 18.4332 15.3288 18.9602C15.5465 19.4872 15.9157 19.9377 16.3897 20.2547C16.8636 20.5717 17.421 20.7409 17.9912 20.7409C18.3701 20.7418 18.7454 20.6674 19.0954 20.5221C19.4454 20.3768 19.7631 20.1636 20.0301 19.8946C20.9018 19.0223 22.5074 16.5582 23.9057 14.2952C24.3928 15.1002 24.7106 15.9961 24.8396 16.9281C24.8945 17.341 25.096 17.7204 25.4072 17.9973C25.7184 18.2741 26.1187 18.43 26.5352 18.4364H31.8039C31.6515 21.999 30.1301 25.3654 27.5569 27.834C24.9837 30.3026 21.557 31.683 17.9912 31.6874Z" fill="white"/>
<path d="M15.5185 22.6385C15.4104 22.5305 15.2639 22.4698 15.1111 22.4698C14.9584 22.4698 14.8118 22.5305 14.7038 22.6385L13.3827 23.9596V23.0459C13.3827 22.8931 13.322 22.7465 13.214 22.6385C13.1059 22.5304 12.9594 22.4697 12.8066 22.4697C12.6538 22.4697 12.5073 22.5304 12.3992 22.6385C12.2912 22.7465 12.2305 22.8931 12.2305 23.0459V27.6549C12.2305 27.8077 12.2912 27.9543 12.3992 28.0623C12.5073 28.1703 12.6538 28.231 12.8066 28.231C12.9594 28.231 13.1059 28.1703 13.214 28.0623C13.322 27.9543 13.3827 27.8077 13.3827 27.6549V26.7412L14.7038 28.0622C14.8125 28.1672 14.958 28.2253 15.1091 28.2239C15.2601 28.2226 15.4046 28.162 15.5114 28.0552C15.6183 27.9484 15.6788 27.8039 15.6802 27.6528C15.6815 27.5018 15.6234 27.3562 15.5185 27.2476L13.6213 25.3504L15.5185 23.4532C15.6265 23.3451 15.6871 23.1986 15.6871 23.0459C15.6871 22.8931 15.6265 22.7466 15.5185 22.6385Z" fill="white"/>
<path d="M22.0254 22.4697C21.8726 22.4697 21.726 22.5304 21.618 22.6385C21.5099 22.7465 21.4492 22.8931 21.4492 23.0459V27.6549C21.4492 27.8077 21.5099 27.9543 21.618 28.0623C21.726 28.1703 21.8726 28.231 22.0254 28.231C22.1782 28.231 22.3247 28.1703 22.4327 28.0623C22.5408 27.9543 22.6015 27.8077 22.6015 27.6549V23.0459C22.6015 22.8931 22.5408 22.7465 22.4327 22.6385C22.3247 22.5304 22.1782 22.4697 22.0254 22.4697Z" fill="white"/>
<path d="M18.5663 22.4697H17.414C17.2612 22.4697 17.1147 22.5304 17.0066 22.6385C16.8986 22.7465 16.8379 22.8931 16.8379 23.0459V27.6549C16.8379 27.8077 16.8986 27.9543 17.0066 28.0623C17.1147 28.1703 17.2612 28.231 17.414 28.231C17.5668 28.231 17.7134 28.1703 17.8214 28.0623C17.9295 27.9543 17.9902 27.8077 17.9902 27.6549V25.9265H18.5663C19.0247 25.9265 19.4643 25.7444 19.7884 25.4203C20.1126 25.0961 20.2947 24.6565 20.2947 24.1981C20.2947 23.7397 20.1126 23.3001 19.7884 22.976C19.4643 22.6518 19.0247 22.4697 18.5663 22.4697ZM18.5663 24.7743H17.9902V23.622H18.5663C18.7191 23.622 18.8656 23.6827 18.9737 23.7907C19.0817 23.8988 19.1424 24.0453 19.1424 24.1981C19.1424 24.3509 19.0817 24.4975 18.9737 24.6055C18.8656 24.7136 18.7191 24.7743 18.5663 24.7743Z" fill="white"/>
</g>
<defs>
<clipPath id="clip0_2287_668">
<rect width="34.5679" height="34.5679" fill="white" transform="translate(0.707031 0.576172)"/>
</clipPath>
</defs>
</svg>
