<svg width="36" height="36" viewBox="0 0 36 36" fill="none" xmlns="http://www.w3.org/2000/svg">
<path d="M28.5366 0.581055H26.4264C26.1467 0.581055 25.92 0.807774 25.92 1.08743C25.92 1.36708 26.1467 1.5938 26.4264 1.5938H28.5366C31.6915 1.5938 34.2583 4.16056 34.2583 7.31553C34.2583 10.4705 31.6915 13.0373 28.5366 13.0373H26.244C26.1098 13.0373 25.981 13.0906 25.8859 13.1856L23.5095 15.5621V13.5436C23.5095 13.264 23.2829 13.0373 23.0031 13.0373H17.5786L17.2459 12.1277C16.9214 11.2407 15.8935 10.7614 15.0044 11.0868C14.2285 11.3706 13.7363 12.2213 13.8849 13.0372H10.1883C7.03331 13.0372 4.46662 10.4704 4.46662 7.31546C4.46662 4.1605 7.03338 1.5938 10.1883 1.5938H24.266C24.5457 1.5938 24.7723 1.36708 24.7723 1.08743C24.7723 0.807774 24.5457 0.581055 24.266 0.581055H10.1883C6.47496 0.581055 3.45394 3.60214 3.45394 7.31553C3.45394 11.0289 6.47496 14.05 10.1883 14.05H13.2374L7.94485 20.1699L4.48161 21.4366C4.2189 21.5327 4.08387 21.8235 4.17994 22.0861C4.27609 22.3488 4.56681 22.4839 4.82945 22.3877L7.94033 21.2499L9.85738 26.4908L4.42901 28.4765C3.80773 28.7037 3.1009 28.3756 2.87371 27.7542L1.78973 24.7908C1.56004 24.1628 1.88399 23.4651 2.51189 23.2354L2.95074 23.075C3.21345 22.9789 3.34848 22.6882 3.25241 22.4255C3.15626 22.1628 2.86547 22.0277 2.6029 22.1239L2.16404 22.2843C1.01181 22.7059 0.417197 23.9862 0.838633 25.1385L1.92261 28.102C2.33911 29.2407 3.63833 29.8441 4.77692 29.4274L6.04798 28.9625L8.01696 34.3452C8.38762 35.3585 9.82518 35.4154 10.278 34.4404L11.0054 32.8739C11.1432 32.5771 11.1571 32.2445 11.0448 31.9373L9.49543 27.7014L10.5577 27.3129L19.6056 28.74C19.9621 29.5795 20.9494 30.0126 21.8117 29.6971C22.6989 29.3726 23.1779 28.3448 22.8526 27.4556L17.9491 14.0499H22.4968V15.9694C22.4968 16.7055 23.43 17.0736 23.9375 16.5662L26.4538 14.0499H28.5367C32.2501 14.0499 35.2711 11.0288 35.2711 7.31539C35.2711 3.602 32.25 0.581055 28.5366 0.581055ZM19.2027 27.6512L10.8803 26.3386L8.82 20.7061L14.3313 14.3333C15.955 18.7726 17.5789 23.2119 19.2027 27.6512ZM10.0938 32.2853C10.1132 32.3385 10.1108 32.396 10.0869 32.4474L9.35945 34.0139C9.22165 34.1827 9.09121 34.1773 8.96813 33.9974L6.99915 28.6146L8.54433 28.0494L10.0938 32.2853ZM21.8779 28.3654C21.7953 28.5434 21.6483 28.6786 21.4639 28.7461C21.083 28.8852 20.6537 28.6701 20.5214 28.3084C18.6528 23.199 16.7843 18.0894 14.9146 12.9803C14.7753 12.5994 14.9907 12.1701 15.3523 12.0379C15.7281 11.9005 16.1572 12.0993 16.2947 12.4755L21.9015 27.8036C21.969 27.9878 21.9606 28.1874 21.8779 28.3654Z" fill="white"/>
<path d="M20.6135 5.19487C20.402 5.26083 20.2578 5.45669 20.2578 5.67828V9.61402C20.2578 9.89367 20.4845 10.1204 20.7642 10.1204C21.0439 10.1204 21.2705 9.89367 21.2705 9.61402V7.30256L23.0088 9.81961C23.1571 10.0339 23.4048 10.1249 23.6393 10.0516C23.8789 9.97678 24.0337 9.7529 24.0337 9.47622V5.66599C24.031 5.38803 23.7679 5.16455 23.4906 5.16455C23.4889 5.16455 23.4872 5.16455 23.4856 5.16455C23.2059 5.16725 22.9814 5.39613 22.9841 5.67578V8.0347L21.1809 5.39052C21.055 5.20817 20.8252 5.12897 20.6135 5.19487Z" fill="white"/>
<path d="M12.5898 5.67092V9.61402C12.5898 9.89367 12.8165 10.1204 13.0962 10.1204C13.3759 10.1204 13.6026 9.89367 13.6026 9.61402V5.67092C13.6026 5.39127 13.3759 5.16455 13.0962 5.16455C12.8165 5.16455 12.5898 5.39127 12.5898 5.67092Z" fill="white"/>
<path d="M18.3926 5.67092V9.61402C18.3926 9.89367 18.6192 10.1204 18.8989 10.1204C19.1787 10.1204 19.4053 9.89367 19.4053 9.61402V5.67092C19.4053 5.39127 19.1787 5.16455 18.8989 5.16455C18.6192 5.16455 18.3926 5.39127 18.3926 5.67092Z" fill="white"/>
<path d="M11.1491 10.1204C11.4288 10.1204 11.6555 9.89367 11.6555 9.61402V5.67092C11.6555 5.39127 11.4288 5.16455 11.1491 5.16455C10.8694 5.16455 10.6428 5.39127 10.6428 5.67092V7.06849H8.92679V5.67092C8.92679 5.39127 8.70014 5.16455 8.42043 5.16455C8.14071 5.16455 7.91406 5.39127 7.91406 5.67092V9.61402C7.91406 9.89367 8.14071 10.1204 8.42043 10.1204C8.70014 10.1204 8.92679 9.89367 8.92679 9.61402V8.08122H10.6428V9.61402C10.6428 9.89367 10.8694 10.1204 11.1491 10.1204Z" fill="white"/>
<path d="M27.1146 6.17728C27.4083 6.17728 27.6915 6.2637 27.9335 6.42722C28.1653 6.58379 28.48 6.52276 28.6365 6.29105C28.793 6.05927 28.7321 5.74451 28.5004 5.58801C28.0903 5.31099 27.611 5.16455 27.1146 5.16455C25.7483 5.16455 24.6367 6.27612 24.6367 7.6425C24.6367 9.00888 25.7483 10.1205 27.1146 10.1205C28.4149 10.1205 29.323 9.10151 29.323 7.6425C29.323 7.36285 29.0963 7.13614 28.8166 7.13614H27.637C27.3573 7.13614 27.1307 7.36285 27.1307 7.6425C27.1307 7.92215 27.3573 8.14887 27.637 8.14887H28.2495C28.1215 8.65922 27.7798 9.10772 27.1146 9.10772C26.3067 9.10772 25.6495 8.45046 25.6495 7.6425C25.6495 6.83454 26.3068 6.17728 27.1146 6.17728Z" fill="white"/>
<path d="M17.6075 6.69567C17.6075 5.85139 16.8945 5.16455 16.0183 5.16455H14.9705C14.9703 5.16455 14.9701 5.16455 14.9699 5.16455C14.9697 5.16455 14.9695 5.16455 14.9693 5.16455C14.6895 5.16455 14.4629 5.39127 14.4629 5.67092V9.61402C14.4629 9.89367 14.6895 10.1204 14.9693 10.1204C15.249 10.1204 15.4756 9.89367 15.4756 9.61402V8.53357L16.721 9.94856C16.953 10.1613 17.1912 10.1765 17.4357 9.99413C17.6456 9.80941 17.666 9.48939 17.4812 9.27948L16.4932 8.15697C17.1382 7.96192 17.6075 7.38061 17.6075 6.69567ZM16.0182 7.21412C15.8912 7.21412 15.677 7.21499 15.4756 7.21594V6.17728H16.0182C16.3307 6.17728 16.5947 6.41467 16.5947 6.69567C16.5947 6.97667 16.3307 7.21412 16.0182 7.21412Z" fill="white"/>
<path d="M30.5083 8.46923C30.788 8.46923 31.0147 8.24251 31.0147 7.96286V5.67092C31.0147 5.39127 30.788 5.16455 30.5083 5.16455C30.2286 5.16455 30.002 5.39127 30.002 5.67092V7.96286C30.002 8.24251 30.2287 8.46923 30.5083 8.46923Z" fill="white"/>
<path d="M30.0122 9.71234C30.0676 9.97929 30.3299 10.1618 30.6 10.1117C30.8683 10.0619 31.0519 9.80024 31.0074 9.53106C30.9625 9.2589 30.6988 9.06905 30.4261 9.11469C30.15 9.16094 29.9541 9.43525 30.0122 9.71234Z" fill="white"/>
<path d="M4.39723 25.4644C4.45495 25.4644 4.51376 25.4545 4.57108 25.4335L6.64495 24.6749C6.90765 24.5788 7.04268 24.2881 6.94661 24.0254C6.85047 23.7628 6.55954 23.6278 6.29711 23.7238L4.22324 24.4824C3.96054 24.5785 3.82551 24.8693 3.92158 25.1319C3.99666 25.3372 4.19063 25.4644 4.39723 25.4644Z" fill="white"/>
</svg>
