<svg width="36" height="36" viewBox="0 0 36 36" fill="none" xmlns="http://www.w3.org/2000/svg">
<path d="M34.1468 17.0777L31.9863 12.7567C31.9426 12.6668 31.8742 12.591 31.7891 12.5384C31.704 12.4858 31.6057 12.4585 31.5056 12.4597H31.0951L30.555 11.9196H31.5056C31.6489 11.9196 31.7863 11.8627 31.8875 11.7614C31.9888 11.6601 32.0457 11.5227 32.0457 11.3794V9.21894C32.0457 9.07569 31.9888 8.93831 31.8875 8.83702C31.7863 8.73572 31.6489 8.67882 31.5056 8.67882H30.555L31.2302 8.00906C31.3314 7.90709 31.3881 7.76924 31.3881 7.62558C31.3881 7.48191 31.3314 7.34407 31.2302 7.24209L29.7016 5.71354C29.5996 5.61235 29.4618 5.55556 29.3181 5.55556C29.1745 5.55556 29.0366 5.61235 28.9346 5.71354L28.2649 6.38869V5.43808C28.2649 5.29483 28.208 5.15744 28.1067 5.05615C28.0054 4.95486 27.868 4.89795 27.7248 4.89795H25.5643C25.421 4.89795 25.2836 4.95486 25.1823 5.05615C25.081 5.15744 25.0241 5.29483 25.0241 5.43808V6.38869L24.3544 5.71354C24.2524 5.61235 24.1146 5.55556 23.9709 5.55556C23.8272 5.55556 23.6894 5.61235 23.5874 5.71354L22.0589 7.24209C21.9577 7.34407 21.9009 7.48191 21.9009 7.62558C21.9009 7.76924 21.9577 7.90709 22.0589 8.00906L22.734 8.67882H21.7834C21.6401 8.67882 21.5028 8.73572 21.4015 8.83702C21.3002 8.93831 21.2433 9.07569 21.2433 9.21894V11.3794C21.2433 11.5227 21.3002 11.6601 21.4015 11.7614C21.5028 11.8627 21.6401 11.9196 21.7834 11.9196H22.734L22.1939 12.4597H19.0828V11.3416C19.082 11.1166 19.1288 10.894 19.22 10.6883C19.3112 10.4826 19.4448 10.2984 19.6121 10.148C20.2303 9.59869 20.6981 8.90079 20.9714 8.12029C21.2446 7.33979 21.3142 6.50248 21.1737 5.68757C21.0331 4.87266 20.6869 4.10708 20.1679 3.46326C19.6489 2.81944 18.9743 2.31866 18.2078 2.00829C18.1255 1.9745 18.0362 1.96154 17.9477 1.97056C17.8593 1.97958 17.7744 2.0103 17.7007 2.05999C17.6269 2.10968 17.5666 2.17682 17.525 2.25542C17.4835 2.33403 17.462 2.42169 17.4624 2.51061V6.22666L16.3822 6.95042L15.3019 6.22666V2.51061C15.3024 2.42169 15.2808 2.33403 15.2393 2.25542C15.1977 2.17682 15.1374 2.10968 15.0636 2.05999C14.9899 2.0103 14.905 1.97958 14.8166 1.97056C14.7281 1.96154 14.6388 1.9745 14.5565 2.00829C13.79 2.31866 13.1154 2.81944 12.5964 3.46326C12.0774 4.10708 11.7313 4.87266 11.5907 5.68757C11.4501 6.50248 11.5197 7.33979 11.7929 8.12029C12.0662 8.90079 12.534 9.59869 13.1522 10.148C13.3195 10.2984 13.4531 10.4826 13.5443 10.6883C13.6356 10.894 13.6823 11.1166 13.6815 11.3416V12.4597H13.1414C13.0414 12.4585 12.9431 12.4858 12.858 12.5384C12.7728 12.591 12.7044 12.6668 12.6607 12.7567L10.5002 17.0777C10.4588 17.16 10.4391 17.2514 10.4429 17.3434C10.4468 17.4354 10.4741 17.5249 10.5222 17.6033C10.5704 17.6818 10.6378 17.7467 10.7181 17.7917C10.7984 17.8368 10.8889 17.8606 10.9809 17.8609H12.6013V24.4612L11.5211 24.7313V23.8023C11.5211 23.659 11.4641 23.5216 11.3629 23.4203C11.2616 23.3191 11.1242 23.2622 10.9809 23.2622H6.65994C6.51669 23.2622 6.37931 23.3191 6.27801 23.4203C6.17672 23.5216 6.11982 23.659 6.11982 23.8023V24.3424H2.33895C2.1957 24.3424 2.05832 24.3993 1.95703 24.5006C1.85573 24.6019 1.79883 24.7393 1.79883 24.8825V32.4443C1.79883 32.5875 1.85573 32.7249 1.95703 32.8262C2.05832 32.9275 2.1957 32.9844 2.33895 32.9844H6.11982V33.5245C6.11982 33.6677 6.17672 33.8051 6.27801 33.9064C6.37931 34.0077 6.51669 34.0646 6.65994 34.0646H10.9809C11.1242 34.0646 11.2616 34.0077 11.3629 33.9064C11.4641 33.8051 11.5211 33.6677 11.5211 33.5245V32.7791L12.2178 33.1248C12.7431 33.3863 13.3216 33.5231 13.9084 33.5245H21.994C22.6581 33.5259 23.3105 33.3507 23.8845 33.0168L32.9585 27.7776C33.3576 27.5474 33.6725 27.1954 33.857 26.7733C34.0415 26.3511 34.086 25.881 33.9839 25.4317C33.8819 24.9825 33.6387 24.5777 33.2899 24.2767C32.9411 23.9757 32.5051 23.7943 32.0457 23.7591V17.8609H33.6661C33.7582 17.8606 33.8487 17.8368 33.9289 17.7917C34.0092 17.7467 34.0766 17.6818 34.1248 17.6033C34.173 17.5249 34.2003 17.4354 34.2041 17.3434C34.208 17.2514 34.1883 17.16 34.1468 17.0777ZM6.11982 31.9041H2.87908V25.4226H6.11982V31.9041ZM10.4408 32.9844H7.20006V24.3424H10.4408V32.9844ZM22.3235 10.8393V9.75906H23.5928C23.7088 9.75873 23.8217 9.72134 23.915 9.65236C24.0082 9.58337 24.077 9.4864 24.1113 9.37558C24.135 9.29906 24.1657 9.22491 24.2031 9.15413C24.2563 9.05216 24.2756 8.93589 24.2581 8.82222C24.2406 8.70856 24.1873 8.60345 24.1059 8.52218L23.2039 7.62558L23.9709 6.8586L24.8675 7.76061C24.9488 7.84198 25.0539 7.89529 25.1675 7.91277C25.2812 7.93026 25.3975 7.91101 25.4994 7.85783C25.5702 7.82037 25.6444 7.78963 25.7209 7.76601C25.8317 7.73171 25.9287 7.66291 25.9977 7.56964C26.0667 7.47637 26.104 7.3635 26.1044 7.24749V5.9782H27.1846V7.24749C27.185 7.3635 27.2224 7.47637 27.2913 7.56964C27.3603 7.66291 27.4573 7.73171 27.5681 7.76601C27.6446 7.78963 27.7188 7.82037 27.7896 7.85783C27.8915 7.91101 28.0078 7.93026 28.1215 7.91277C28.2351 7.89529 28.3403 7.84198 28.4215 7.76061L29.3181 6.8586L30.0851 7.62558L29.1831 8.52218C29.1017 8.60345 29.0484 8.70856 29.0309 8.82222C29.0134 8.93589 29.0327 9.05216 29.0859 9.15413C29.1233 9.22491 29.1541 9.29906 29.1777 9.37558C29.212 9.4864 29.2808 9.58337 29.3741 9.65236C29.4673 9.72134 29.5802 9.75873 29.6962 9.75906H30.9655V10.8393H29.6962C29.5802 10.8397 29.4673 10.877 29.3741 10.946C29.2808 11.015 29.212 11.112 29.1777 11.2228C29.1541 11.2993 29.1233 11.3735 29.0859 11.4443C29.0327 11.5462 29.0134 11.6625 29.0309 11.7762C29.0484 11.8898 29.1017 11.9949 29.1831 12.0762L29.572 12.4597H23.717L24.1059 12.0762C24.1873 11.9949 24.2406 11.8898 24.2581 11.7762C24.2756 11.6625 24.2563 11.5462 24.2031 11.4443C24.1657 11.3735 24.135 11.2993 24.1113 11.2228C24.077 11.112 24.0082 11.015 23.915 10.946C23.8217 10.877 23.7088 10.8397 23.5928 10.8393H22.3235ZM22.8636 15.2899L24.0033 17.5638C24.047 17.6538 24.1154 17.7296 24.2005 17.7822C24.2857 17.8347 24.384 17.8621 24.484 17.8609H30.9655V23.9535C30.9115 23.9805 30.8521 24.0075 30.7981 24.0345L25.5319 27.0754C25.2443 26.6445 24.8108 26.3319 24.3112 26.195L22.8636 25.8115V15.2899ZM12.6013 6.51832C12.6 5.90818 12.7467 5.30682 13.0289 4.76588C13.3112 4.22493 13.7205 3.76056 14.2217 3.41261V6.51832C14.2221 6.60729 14.2446 6.69476 14.287 6.77297C14.3294 6.85117 14.3904 6.9177 14.4647 6.96663L16.0851 8.04687C16.1723 8.10754 16.2759 8.14005 16.3822 8.14005C16.4884 8.14005 16.592 8.10754 16.6792 8.04687L18.2996 6.96663C18.3739 6.9177 18.435 6.85117 18.4774 6.77297C18.5198 6.69476 18.5422 6.60729 18.5427 6.51832V3.41261C19.0115 3.73894 19.4003 4.16726 19.6799 4.66541C19.9595 5.16356 20.1226 5.71858 20.1569 6.2888C20.1912 6.85901 20.0958 7.42958 19.878 7.95766C19.6602 8.48574 19.3255 8.95759 18.8991 9.33777C18.6155 9.58861 18.3888 9.89717 18.2342 10.2428C18.0796 10.5884 18.0006 10.963 18.0025 11.3416V12.4597H16.9223V10.8393C16.9223 10.6961 16.8654 10.5587 16.7641 10.4574C16.6628 10.3561 16.5254 10.2992 16.3822 10.2992C16.2389 10.2992 16.1015 10.3561 16.0002 10.4574C15.8989 10.5587 15.842 10.6961 15.842 10.8393V12.4597H14.7618V11.3416C14.7635 10.9636 14.685 10.5894 14.5313 10.244C14.3777 9.89857 14.1525 9.58968 13.8706 9.33777C13.4711 8.98474 13.1514 8.55076 12.9325 8.06465C12.7137 7.57854 12.6008 7.05142 12.6013 6.51832ZM11.8559 16.7807L13.4763 13.5399H21.4485L19.8281 16.7807H11.8559ZM21.7834 15.2899V25.5199L16.2525 24.0399C15.6324 23.8726 14.9796 23.867 14.3567 24.0237L13.6815 24.1912V17.8609H20.163C20.2631 17.8621 20.3614 17.8347 20.4465 17.7822C20.5316 17.7296 20.6 17.6538 20.6437 17.5638L21.7834 15.2899ZM32.8073 25.3686C32.9508 25.6159 32.9904 25.9099 32.9175 26.1862C32.8446 26.4626 32.6651 26.6988 32.4184 26.8432L23.3444 32.0824C22.934 32.3198 22.4682 32.4447 21.994 32.4443H13.9084C13.4882 32.4451 13.0738 32.347 12.6985 32.158L11.5211 31.5693V25.8439L14.616 25.0716C15.0613 24.959 15.5282 24.9627 15.9717 25.0824L24.0303 27.2429C24.2376 27.2967 24.4242 27.4112 24.566 27.5718C24.7078 27.7323 24.7984 27.9315 24.8263 28.1439C24.8542 28.3563 24.8179 28.5721 24.7223 28.7638C24.6267 28.9555 24.476 29.1142 24.2896 29.2197C24.1678 29.2915 24.0329 29.3381 23.8928 29.3567C23.7526 29.3752 23.6102 29.3654 23.474 29.3277L17.0303 27.5993C16.8914 27.5621 16.7433 27.5816 16.6187 27.6535C16.4941 27.7254 16.4032 27.8439 16.366 27.9828C16.3287 28.1218 16.3482 28.2698 16.4201 28.3944C16.492 28.519 16.6105 28.6099 16.7494 28.6472L23.1931 30.3702C23.3763 30.4195 23.5651 30.4449 23.7548 30.4458C24.1328 30.4463 24.5039 30.3456 24.8297 30.1541C25.0766 30.0131 25.293 29.8245 25.4664 29.5992C25.6397 29.3739 25.7667 29.1164 25.8397 28.8416C25.8996 28.6035 25.9197 28.3571 25.8991 28.1125L31.3382 24.9743C31.5864 24.8366 31.8784 24.8007 32.1525 24.8743C32.4267 24.9479 32.6615 25.1251 32.8073 25.3686ZM24.8189 16.7807L23.1985 13.5399H31.1707L32.7911 16.7807H24.8189Z" fill="white"/>
<path d="M28.8054 10.2987C28.8054 9.87137 28.6787 9.45366 28.4413 9.09837C28.2039 8.74308 27.8664 8.46617 27.4717 8.30264C27.0769 8.13912 26.6425 8.09633 26.2234 8.1797C25.8043 8.26306 25.4193 8.46883 25.1172 8.77098C24.815 9.07313 24.6093 9.45809 24.5259 9.87719C24.4425 10.2963 24.4853 10.7307 24.6488 11.1255C24.8124 11.5202 25.0893 11.8577 25.4446 12.0951C25.7999 12.3325 26.2176 12.4592 26.6449 12.4592C27.2179 12.4592 27.7674 12.2315 28.1726 11.8264C28.5777 11.4212 28.8054 10.8717 28.8054 10.2987ZM26.6449 11.3789C26.4312 11.3789 26.2224 11.3156 26.0447 11.1969C25.8671 11.0782 25.7286 10.9095 25.6469 10.7121C25.5651 10.5147 25.5437 10.2975 25.5854 10.0879C25.6271 9.87839 25.7299 9.6859 25.881 9.53483C26.0321 9.38375 26.2246 9.28087 26.4341 9.23919C26.6437 9.19751 26.8609 9.2189 27.0583 9.30066C27.2557 9.38242 27.4244 9.52088 27.5431 9.69853C27.6618 9.87617 27.7251 10.085 27.7251 10.2987C27.7251 10.5852 27.6113 10.8599 27.4087 11.0625C27.2061 11.2651 26.9314 11.3789 26.6449 11.3789Z" fill="white"/>
</svg>
