<svg width="500" height="500" viewBox="0 0 500 500" fill="none" xmlns="http://www.w3.org/2000/svg">
<path d="M98.5238 49.9751C100.756 46.3665 104.331 43.7925 108.461 42.8195L284.679 1.30636C288.809 0.333324 293.157 1.04094 296.766 3.27353L450.724 98.5238C454.333 100.756 456.907 104.331 457.88 108.461L499.393 284.679C500.366 288.809 499.658 293.157 497.426 296.766L402.176 450.724C399.943 454.333 396.368 456.907 392.238 457.88L216.021 499.393C211.89 500.366 207.542 499.659 203.934 497.426L49.9751 402.176C46.3664 399.943 43.7924 396.368 42.8194 392.238L1.30631 216.021C0.333273 211.89 1.04089 207.542 3.27348 203.934L98.5238 49.9751Z" fill="#88B0D7"/>
</svg>
