<svg width="493" height="500" viewBox="0 0 493 500" fill="none" xmlns="http://www.w3.org/2000/svg">
<path d="M113.131 31.6202C115.597 28.7796 118.984 26.8987 122.699 26.3077L282.691 0.857429C286.406 0.266483 290.211 1.00333 293.436 2.93855L432.356 86.2832C435.582 88.2185 438.022 91.2283 439.25 94.7842L492.095 247.926C493.323 251.482 493.257 255.356 491.912 258.869L433.957 410.151C432.611 413.664 430.071 416.59 426.782 418.416L285.143 497.052C281.854 498.878 278.027 499.487 274.334 498.771L115.287 467.966C111.594 467.251 108.271 465.257 105.902 462.336L3.86512 336.504C1.49588 333.582 0.231821 329.919 0.294948 326.158L3.01357 164.177C3.07669 160.416 4.46297 156.798 6.92891 153.957L113.131 31.6202Z" fill="#E6A6A6"/>
</svg>
