<svg width="492" height="487" viewBox="0 0 492 487" fill="none" xmlns="http://www.w3.org/2000/svg">
<path d="M121.502 19.5154C124.312 15.5389 128.779 13.0584 133.64 12.776L338.177 0.895972C343.038 0.613644 347.763 2.5602 351.014 6.18465L487.829 158.69C491.08 162.315 492.504 167.223 491.698 172.025L457.767 374.076C456.96 378.878 454.011 383.052 449.754 385.415L270.628 484.864C266.371 487.227 261.269 487.524 256.767 485.669L67.3314 407.627C62.8293 405.773 59.4167 401.969 58.0598 397.292L0.964001 200.528C-0.392938 195.852 0.453404 190.812 3.26345 186.835L121.502 19.5154Z" fill="#BAB2F1"/>
</svg>
