<svg width="504" height="176" viewBox="0 0 504 176" fill="none" xmlns="http://www.w3.org/2000/svg">
<path d="M102.443 122.93C104.19 124.139 119.314 135.105 120.092 145.589C120.431 153.593 114.471 158.566 108.42 159.371C103.849 159.947 78.9089 156.284 102.443 122.93ZM90.1692 119.375C86.1365 157.844 64.5235 148.294 61.4084 145.519C53.5885 138.562 56.5697 120.598 90.1692 119.375ZM144.447 122.439C148.313 127.146 154.864 136.085 156.263 143.959L156.376 144.741C156.994 150.909 151.585 157.889 143.679 157.619C132.401 157.207 122.19 141.995 144.447 122.439ZM58.1786 98.6198L58.2708 99.5847C58.8846 106.544 58.2243 113.202 56.439 117.821C51.7252 130.089 36.3551 131.899 32.2905 123.246C29.8081 117.928 33.0986 112.082 35.1064 110.077C43.1187 102.027 57.6909 97.36 58.0347 97.4682C58.0924 97.8916 58.1388 98.2734 58.1786 98.6198ZM154.716 118.887C159.261 119.006 181.657 120.303 183.764 134.634L183.841 135.352C183.949 136.672 183.823 138.649 182.68 140.568C179.905 145.243 172.25 146.908 165.703 141.812C160.533 137.808 156.36 125.511 154.716 118.887ZM108.636 99.0678C115.338 89.2388 133.711 92.2644 135.651 106.447C136.145 114.574 125.329 126.805 123.157 129.177C108.516 116.535 103.641 106.414 108.636 99.0678ZM17.0014 99.8793C15.0938 91.8188 29.7733 76.2715 52.5402 89.399C45.7781 95.0791 36.2561 102.27 29.2167 104.345C24.9584 105.604 18.1707 104.726 17.0014 99.8793ZM73.4071 89.8299C80.1521 80.5717 98.5515 81.511 100.579 93.6648L100.631 94.2447C101.028 98.629 101.847 107.699 69.1234 113.338C68.9892 111.701 67.977 97.2482 73.4071 89.8299ZM49.3529 61.4143C23.6058 88.538 15.1552 78.7889 15.0732 78.6902C10.9776 73.6331 22.4344 58.4583 48.1134 61.2893L49.3529 61.4143ZM42.9763 78.5695C61.5654 57.9569 78.628 60.4375 80.8845 69.5512L80.9888 69.9582C81.4118 73.7382 78.2725 80.1575 67.8718 82.5241C60.9104 84.1275 45.9178 79.4953 42.9763 78.5695ZM25.1209 51.5528C28.5362 46.5934 49.2091 34.1244 52.7147 51.4457L52.8936 52.2994C52.9211 52.5178 52.9913 53.1156 53.0424 53.7873C52.5519 53.8552 40.5474 56.0802 40.4312 56.0939C34.1103 57.2574 19.3294 59.9201 25.1209 51.5528ZM60.2628 42.2898C71.5702 39.5716 90.0255 37.9848 91.5116 45.3696C91.5954 45.9005 91.5977 46.7726 91.0918 47.7635C88.6366 52.6488 66.525 62.9197 60.2628 42.2898ZM66.4975 26.511C73.503 26.3952 77.6752 29.9003 80.007 33.1263L80.43 33.7342C64.1271 35.9993 55.294 37.1482 53.9309 37.1766C48.3891 37.2842 45.8125 36.3526 46.3073 34.384C47.1254 31.1716 57.245 26.6863 66.4975 26.511ZM112.203 28.1948C112.328 28.2244 126.081 33.9154 128.838 39.5001L129.038 40.0325C129.223 40.8226 129.189 42.814 125.535 44.2158C116.062 47.8606 95.9533 42.6699 99.2254 35.7526C101.387 31.2194 112.091 28.1766 112.203 28.1948ZM92.6945 19.6984C96.7184 19.658 104.512 20.2172 106.121 22.6807L106.263 22.9C107.124 25.2705 92.2271 30.8638 92.0404 30.8722C91.8349 30.87 77.5469 25.57 78.5528 23.2252C79.2645 21.5721 84.7561 19.79 92.6945 19.6984ZM146.504 36.9102C148.776 32.9087 152.939 33.6081 156.689 34.8174C164.803 37.4344 172.957 43.0983 173.709 45.707C173.722 45.7629 173.753 45.8501 173.742 45.9001C173.817 47.0272 172.093 47.1718 168.608 46.2898C168.373 46.2313 146.215 39.2709 145.693 38.8825C145.784 38.6126 146.004 37.7937 146.504 36.9102ZM117.508 23.3318C119.348 19.7026 141.843 25.2118 143.395 29.6744C143.503 30.4396 143.63 31.2362 134.486 34.3949C119.345 26.3826 116.808 24.7232 117.508 23.3318Z" fill="url(#paint0_linear_2805_750)"/>
<path d="M201.948 80.4526C204.691 81.0403 206.797 82.1667 208.266 83.8318C209.768 85.4643 210.519 87.4559 210.519 89.8066C210.519 93.2021 209.229 95.912 206.65 97.9363C204.071 99.9605 200.381 100.973 195.582 100.973H184.122C183.142 100.973 182.44 100.875 182.016 100.679C181.592 100.483 181.379 100.124 181.379 99.6014C181.379 99.1443 181.51 98.7688 181.771 98.475C182.065 98.1485 182.375 97.8873 182.702 97.6914C183.061 97.4955 183.42 97.169 183.779 96.7119C184.138 96.2222 184.367 95.6345 184.465 94.9489C184.563 94.3612 184.612 93.5939 184.612 92.6471V75.0165C184.612 74.0697 184.563 73.3024 184.465 72.7147C184.367 71.9964 184.138 71.4087 183.779 70.9516C183.42 70.4619 183.061 70.1354 182.702 69.9722C182.375 69.7763 182.065 69.5314 181.771 69.2376C181.51 68.9111 181.379 68.5193 181.379 68.0622C181.379 67.5398 181.592 67.1807 182.016 66.9848C182.44 66.7889 183.142 66.6909 184.122 66.6909H194.113C202.438 66.6909 206.617 69.1723 206.65 74.135C206.715 77.204 205.148 79.3099 201.948 80.4526ZM191.517 71.3434V78.1508C191.517 78.4773 191.648 78.7385 191.909 78.9344C192.203 79.0976 192.48 79.1956 192.741 79.2282C193.035 79.2282 193.476 79.2282 194.064 79.2282C197.916 79.2282 199.843 77.8406 199.843 75.0655C199.843 73.5636 199.271 72.3066 198.128 71.2945C196.986 70.2823 195.468 69.7763 193.574 69.7763C192.203 69.7763 191.517 70.2987 191.517 71.3434ZM195.484 97.8873C198.063 97.8873 199.957 97.3323 201.165 96.2222C202.406 95.1121 203.026 93.398 203.026 91.0799C203.026 88.5659 202.177 86.509 200.479 84.9092C198.814 83.2767 196.512 82.4605 193.574 82.4605C192.79 82.4605 192.252 82.5748 191.958 82.8033C191.664 83.0319 191.517 83.4563 191.517 84.0767V94.4591C191.517 95.7651 191.778 96.663 192.301 97.1527C192.823 97.6424 193.884 97.8873 195.484 97.8873ZM239.531 90.7371C240.02 90.8351 240.314 91.0473 240.412 91.3738C240.543 91.7003 240.592 92.239 240.559 92.9899C240.461 95.5366 240.216 97.5118 239.824 98.9158C239.628 99.6993 239.253 100.238 238.698 100.532C238.143 100.826 237.147 100.973 235.711 100.973H215.974C214.995 100.973 214.293 100.875 213.868 100.679C213.444 100.483 213.232 100.124 213.232 99.6014C213.232 99.1443 213.362 98.7688 213.623 98.475C213.917 98.1485 214.227 97.8873 214.554 97.6914C214.913 97.4955 215.272 97.169 215.631 96.7119C215.99 96.2222 216.219 95.6345 216.317 94.9489C216.415 94.3612 216.464 93.5939 216.464 92.6471V75.0165C216.464 74.0697 216.415 73.3024 216.317 72.7147C216.219 71.9964 215.99 71.4087 215.631 70.9516C215.272 70.4619 214.913 70.1354 214.554 69.9722C214.227 69.7763 213.917 69.5314 213.623 69.2376C213.362 68.9111 213.232 68.5193 213.232 68.0622C213.232 67.5398 213.444 67.1807 213.868 66.9848C214.293 66.7889 214.995 66.6909 215.974 66.6909H234.731C236.07 66.6909 237.017 66.8215 237.572 67.0827C238.159 67.3439 238.567 67.7847 238.796 68.405C239.482 69.9069 239.971 71.5883 240.265 73.4493C240.526 74.8532 240.281 75.6531 239.531 75.849C238.747 76.1102 237.98 75.6368 237.229 74.4288C236.249 72.829 235.188 71.6536 234.045 70.9027C232.935 70.1517 231.597 69.7763 230.03 69.7763H227.728C225.965 69.7763 224.789 69.9558 224.202 70.315C223.647 70.6415 223.369 71.2128 223.369 72.0291V78.8364C223.369 79.8159 223.63 80.4689 224.153 80.7954C224.708 81.0892 225.606 81.2362 226.846 81.2362H228.218C228.936 81.2362 229.507 81.0403 229.932 80.6485C230.389 80.2567 230.683 79.8159 230.813 79.3262C230.976 78.8364 231.189 78.3957 231.45 78.0039C231.744 77.6121 232.103 77.4162 232.527 77.4162C233.05 77.4162 233.409 77.6121 233.605 78.0039C233.801 78.3957 233.899 79.065 233.899 80.0118V85.7418C233.899 87.3416 233.441 88.1415 232.527 88.1415C232.103 88.1415 231.744 87.9456 231.45 87.5538C231.189 87.1294 230.976 86.6886 230.813 86.2315C230.683 85.7418 230.389 85.301 229.932 84.9092C229.507 84.4848 228.936 84.2726 228.218 84.2726H226.846C225.573 84.2726 224.675 84.4358 224.153 84.7623C223.63 85.0561 223.369 85.6928 223.369 86.6723V95.5855C223.369 96.4344 223.663 97.0384 224.251 97.3976C224.871 97.7241 226.128 97.8873 228.022 97.8873L231.254 97.8383C232.821 97.8383 233.996 97.4629 234.78 96.7119C235.564 95.9283 236.413 94.5571 237.327 92.5981C238.012 91.1615 238.747 90.5412 239.531 90.7371ZM268.917 66.7399H273.717C275.414 66.7399 276.263 67.148 276.263 67.9642C276.263 68.356 276.1 68.6988 275.774 68.9927C275.447 69.2539 275.055 69.4824 274.598 69.6783C274.141 69.8742 273.586 70.2334 272.933 70.7558C272.313 71.2455 271.758 71.8822 271.268 72.6657L262.991 85.7907V92.794C262.991 94.1 263.155 95.1611 263.481 95.9773C263.808 96.7609 264.15 97.267 264.51 97.4955C264.901 97.7241 265.26 98.0179 265.587 98.377C265.913 98.7035 266.077 99.1116 266.077 99.6014C266.077 100.124 265.881 100.483 265.489 100.679C265.097 100.875 264.395 100.973 263.383 100.973H255.596C254.617 100.973 253.915 100.875 253.49 100.679C253.066 100.483 252.854 100.124 252.854 99.6014C252.854 99.1116 253.017 98.7035 253.343 98.377C253.703 98.0179 254.078 97.7241 254.47 97.4955C254.862 97.267 255.221 96.7609 255.547 95.9773C255.906 95.1611 256.086 94.1 256.086 92.794V85.7907L247.173 72.6657C246.618 71.8822 246.03 71.2292 245.41 70.7068C244.822 70.1844 244.332 69.8416 243.94 69.6783C243.581 69.4824 243.271 69.2539 243.01 68.9927C242.749 68.7315 242.618 68.3887 242.618 67.9642C242.618 67.1154 243.402 66.6909 244.969 66.6909H254.078C255.58 66.6909 256.331 67.1154 256.331 67.9642C256.331 68.3234 256.184 68.6662 255.89 68.9927C255.629 69.2865 255.368 69.5314 255.107 69.7273C254.878 69.9232 254.764 70.2823 254.764 70.8047C254.796 71.2945 255.074 71.9311 255.596 72.7147L261.669 82.0198L267.252 72.7147C267.742 71.8658 268.003 71.1965 268.036 70.7068C268.101 70.1844 268.019 69.8416 267.791 69.6783C267.562 69.4824 267.317 69.2539 267.056 68.9927C266.828 68.6988 266.713 68.3724 266.713 68.0132C266.713 67.1643 267.448 66.7399 268.917 66.7399ZM291.77 101.462C287.101 101.462 283.232 99.9442 280.163 96.9078C277.126 93.8388 275.608 89.9209 275.608 85.1541C275.608 79.8649 277.339 75.3919 280.799 71.7352C284.293 68.0459 288.635 66.2012 293.827 66.2012C298.659 66.2012 302.56 67.7847 305.531 70.9516C308.502 74.086 309.988 78.0529 309.988 82.8523C309.988 88.1741 308.274 92.6144 304.846 96.1732C301.417 99.6993 297.059 101.462 291.77 101.462ZM294.316 97.5935C297.287 97.5935 299.508 96.565 300.977 94.5081C302.479 92.4512 303.23 89.8066 303.23 86.5743C303.23 83.7665 302.772 81.0892 301.858 78.5426C300.944 75.996 299.573 73.8901 297.744 72.225C295.916 70.5272 293.843 69.6783 291.525 69.6783C288.619 69.6783 286.366 70.7558 284.766 72.9106C283.167 75.0328 282.367 77.6284 282.367 80.6975C282.367 85.1704 283.477 89.1046 285.697 92.5002C287.917 95.8957 290.79 97.5935 294.316 97.5935ZM341.193 66.7399H345.552C346.401 66.7399 346.988 66.8378 347.315 67.0337C347.674 67.197 347.854 67.5235 347.854 68.0132C347.854 68.4377 347.625 68.8294 347.168 69.1886C346.743 69.5151 346.303 69.9722 345.846 70.5599C345.421 71.1149 345.209 71.8658 345.209 72.8127V98.8178C345.209 99.4381 345.062 99.9605 344.768 100.385C344.507 100.777 344.181 100.973 343.789 100.973H343.25C342.597 100.973 341.895 100.548 341.144 99.6993L320.085 75.8001L320.183 94.8509C320.183 95.6019 320.314 96.2385 320.575 96.7609C320.869 97.2833 321.179 97.6588 321.506 97.8873C321.832 98.1158 322.126 98.3934 322.387 98.7199C322.681 99.0137 322.828 99.3402 322.828 99.6993C322.828 100.189 322.648 100.516 322.289 100.679C321.963 100.842 321.391 100.924 320.575 100.924H316.265C315.417 100.924 314.812 100.842 314.453 100.679C314.127 100.483 313.964 100.14 313.964 99.6504C313.964 99.2259 314.176 98.8505 314.6 98.524C315.057 98.1648 315.498 97.7077 315.923 97.1527C316.38 96.565 316.608 95.7977 316.608 94.8509V75.0165C316.608 74.0697 316.559 73.3024 316.461 72.7147C316.363 71.9964 316.135 71.4087 315.776 70.9516C315.449 70.4619 315.106 70.1354 314.747 69.9722C314.388 69.7763 314.062 69.5314 313.768 69.2376C313.507 68.9111 313.376 68.5193 313.376 68.0622C313.376 67.5398 313.588 67.1807 314.013 66.9848C314.437 66.7889 315.139 66.6909 316.118 66.6909H320.036C320.918 66.6909 321.701 67.0827 322.387 67.8663L341.634 89.9046V72.8127C341.634 72.0617 341.487 71.4251 341.193 70.9027C340.899 70.3803 340.589 70.0048 340.263 69.7763C339.936 69.5477 339.626 69.2865 339.332 68.9927C339.071 68.6662 338.94 68.3234 338.94 67.9642C338.94 67.4745 339.104 67.148 339.43 66.9848C339.789 66.8215 340.377 66.7399 341.193 66.7399ZM353.861 66.6909H365.566C368.831 66.6909 371.72 67.1643 374.234 68.1112C376.781 69.058 378.789 70.3313 380.258 71.9311C381.76 73.5309 382.886 75.294 383.637 77.2203C384.388 79.114 384.764 81.1219 384.764 83.2441C384.764 88.3047 383.18 92.5328 380.013 95.9283C376.846 99.2912 372.439 100.973 366.79 100.973H353.861C352.882 100.973 352.18 100.875 351.755 100.679C351.364 100.483 351.168 100.124 351.168 99.6014C351.168 99.1443 351.298 98.7688 351.56 98.475C351.853 98.1485 352.164 97.8873 352.49 97.6914C352.849 97.4955 353.192 97.169 353.518 96.7119C353.878 96.2222 354.106 95.6345 354.204 94.9489C354.302 94.3612 354.351 93.5939 354.351 92.6471V75.0165C354.351 74.0697 354.302 73.3024 354.204 72.7147C354.106 71.9964 353.878 71.4087 353.518 70.9516C353.192 70.4619 352.849 70.1354 352.49 69.9722C352.164 69.7763 351.853 69.5314 351.56 69.2376C351.298 68.9111 351.168 68.5193 351.168 68.0622C351.168 67.5398 351.364 67.1807 351.755 66.9848C352.18 66.7889 352.882 66.6909 353.861 66.6909ZM366.203 98.0832C370.121 98.0832 372.977 97.0058 374.773 94.8509C376.602 92.6634 377.516 89.725 377.516 86.0356C377.516 81.3015 376.259 77.3672 373.745 74.2329C371.263 71.0986 368.047 69.5314 364.097 69.5314C363.019 69.5314 362.268 69.6783 361.844 69.9722C361.452 70.2334 361.256 70.8047 361.256 71.6863V95.0958C361.256 96.1406 361.583 96.9078 362.236 97.3976C362.889 97.8547 364.211 98.0832 366.203 98.0832ZM431.088 74.8696V92.794C431.088 94.1 431.251 95.1611 431.578 95.9773C431.904 96.7609 432.263 97.267 432.655 97.4955C433.047 97.7241 433.406 98.0179 433.732 98.377C434.059 98.7035 434.222 99.1116 434.222 99.6014C434.222 100.124 434.026 100.483 433.634 100.679C433.243 100.875 432.524 100.973 431.48 100.973H423.693C422.713 100.973 422.011 100.875 421.587 100.679C421.195 100.483 420.999 100.124 420.999 99.6014C420.999 99.1116 421.162 98.7035 421.489 98.377C421.815 98.0179 422.175 97.7241 422.566 97.4955C422.991 97.267 423.366 96.7609 423.693 95.9773C424.019 95.1611 424.182 94.1 424.182 92.794V86.4764C424.182 85.5948 424.019 85.0398 423.693 84.8113C423.203 84.5174 421.162 84.3705 417.571 84.3705H417.522H417.473H417.424H417.375H417.326H417.277H417.228H417.179H417.13H417.081H417.032H416.983H416.934H416.885H416.836H416.787H416.738H416.298C411.955 84.3705 409.49 84.4848 408.903 84.7133C408.446 85.1051 408.217 85.6928 408.217 86.4764V92.794C408.217 94.1 408.38 95.1611 408.707 95.9773C409.033 96.7609 409.376 97.267 409.735 97.4955C410.127 97.7241 410.486 98.0179 410.813 98.377C411.139 98.7035 411.302 99.1116 411.302 99.6014C411.302 100.124 411.106 100.483 410.715 100.679C410.323 100.875 409.621 100.973 408.609 100.973H400.822C399.842 100.973 399.14 100.875 398.716 100.679C398.292 100.483 398.079 100.124 398.079 99.6014C398.079 99.1116 398.243 98.7035 398.569 98.377C398.928 98.0179 399.304 97.7241 399.696 97.4955C400.087 97.267 400.446 96.7609 400.773 95.9773C401.132 95.1611 401.312 94.1 401.312 92.794V74.8696C401.312 73.5636 401.148 72.5188 400.822 71.7352C400.495 70.919 400.136 70.3966 399.744 70.1681C399.353 69.9395 398.994 69.662 398.667 69.3355C398.341 68.9764 398.177 68.5519 398.177 68.0622C398.177 67.5398 398.373 67.1807 398.765 66.9848C399.157 66.7889 399.875 66.6909 400.92 66.6909H408.707C409.686 66.6909 410.372 66.7889 410.764 66.9848C411.188 67.1807 411.4 67.5398 411.4 68.0622C411.4 68.5519 411.237 68.9764 410.911 69.3355C410.584 69.662 410.209 69.9395 409.784 70.1681C409.392 70.3966 409.033 70.919 408.707 71.7352C408.38 72.5188 408.217 73.5636 408.217 74.8696V79.1303C408.217 80.0118 408.38 80.5505 408.707 80.7464C409.196 81.0729 411.27 81.2362 414.926 81.2362C415.22 81.2362 415.694 81.2362 416.347 81.2362C420.526 81.2362 422.909 81.1219 423.497 80.8934C423.954 80.5016 424.182 79.9139 424.182 79.1303V74.8696C424.182 73.5636 424.019 72.5188 423.693 71.7352C423.366 70.919 423.007 70.3966 422.615 70.1681C422.256 69.9395 421.913 69.662 421.587 69.3355C421.26 68.9764 421.097 68.5519 421.097 68.0622C421.097 67.5398 421.293 67.1807 421.685 66.9848C422.077 66.7889 422.779 66.6909 423.791 66.6909H431.578C432.557 66.6909 433.259 66.7889 433.683 66.9848C434.108 67.1807 434.32 67.5398 434.32 68.0622C434.32 68.5519 434.14 68.9764 433.781 69.3355C433.455 69.662 433.096 69.9395 432.704 70.1681C432.312 70.3966 431.937 70.919 431.578 71.7352C431.251 72.5188 431.088 73.5636 431.088 74.8696ZM453.998 101.462C444.791 101.462 440.187 96.3038 440.187 85.9866V74.9185C440.187 73.5799 440.024 72.5188 439.698 71.7352C439.371 70.919 439.012 70.3966 438.62 70.1681C438.261 69.9395 437.918 69.662 437.592 69.3355C437.265 69.009 437.102 68.6009 437.102 68.1112C437.102 67.5888 437.298 67.2296 437.69 67.0337C438.081 66.8378 438.783 66.7399 439.796 66.7399H447.631C448.611 66.7399 449.297 66.8378 449.688 67.0337C450.113 67.2296 450.325 67.5888 450.325 68.1112C450.325 68.5356 450.211 68.8784 449.982 69.1396C449.786 69.4008 449.525 69.6457 449.199 69.8742C448.872 70.0701 448.546 70.3313 448.219 70.6578C447.925 70.9516 447.664 71.474 447.436 72.225C447.24 72.9433 447.142 73.8411 447.142 74.9185V87.3089C447.142 90.6392 447.876 93.1858 449.345 94.9489C450.815 96.7119 452.904 97.5935 455.614 97.5935C458.324 97.5935 460.43 96.6303 461.932 94.704C463.434 92.7777 464.185 90.1331 464.185 86.7702L464.136 72.8127C464.136 72.0617 463.989 71.4251 463.695 70.9027C463.434 70.3803 463.14 70.0048 462.813 69.7763C462.487 69.5477 462.177 69.2865 461.883 68.9927C461.622 68.6662 461.491 68.3234 461.491 67.9642C461.491 67.4745 461.654 67.148 461.981 66.9848C462.34 66.8215 462.928 66.7399 463.744 66.7399H468.102C468.951 66.7399 469.539 66.8378 469.866 67.0337C470.225 67.197 470.404 67.5235 470.404 68.0132C470.404 68.4377 470.176 68.8294 469.719 69.1886C469.294 69.5151 468.853 69.9722 468.396 70.5599C467.939 71.1149 467.711 71.8658 467.711 72.8127V85.6438C467.678 91.031 466.535 95.0142 464.283 97.5935C462.062 100.173 458.634 101.462 453.998 101.462ZM491.042 72.127V92.794C491.042 94.1 491.205 95.1611 491.532 95.9773C491.858 96.7609 492.217 97.267 492.609 97.4955C493.001 97.7241 493.36 98.0179 493.686 98.377C494.013 98.7035 494.176 99.1116 494.176 99.6014C494.176 100.124 493.964 100.483 493.539 100.679C493.148 100.875 492.446 100.973 491.434 100.973H483.647C482.667 100.973 481.965 100.875 481.541 100.679C481.116 100.483 480.904 100.124 480.904 99.6014C480.904 99.1116 481.067 98.7035 481.394 98.377C481.753 98.0179 482.129 97.7241 482.52 97.4955C482.912 97.267 483.271 96.7609 483.598 95.9773C483.957 95.1611 484.136 94.1 484.136 92.794V72.127C484.136 70.6905 483.402 69.9722 481.933 69.9722C480.888 69.9722 480.006 70.2007 479.288 70.6578C478.57 71.0822 478.015 71.5883 477.623 72.176C477.264 72.731 476.725 73.6779 476.007 75.0165C475.419 76.2245 474.815 76.8285 474.195 76.8285C473.313 76.8285 472.905 76.1102 472.97 74.6737C473.068 72.127 473.313 70.1517 473.705 68.7478C473.901 67.9642 474.276 67.4255 474.831 67.1317C475.386 66.8378 476.382 66.6909 477.819 66.6909H497.359C498.796 66.6909 499.775 66.8378 500.298 67.1317C500.853 67.4255 501.228 67.9479 501.424 68.6988C501.881 70.3313 502.126 72.3229 502.159 74.6737C502.224 76.1102 501.832 76.8285 500.984 76.8285C500.363 76.8285 499.743 76.2245 499.123 75.0165C498.143 73.0902 497.278 71.7679 496.527 71.0496C495.809 70.2987 494.699 69.9232 493.197 69.9232C491.76 69.9232 491.042 70.6578 491.042 72.127Z" fill="#545454"/>
<defs>
<linearGradient id="paint0_linear_2805_750" x1="147.61" y1="84.1604" x2="12.6264" y2="52.0439" gradientUnits="userSpaceOnUse">
<stop stop-color="#958CFF"/>
<stop offset="1" stop-color="#57D5FF"/>
</linearGradient>
</defs>
</svg>
